ffmpeg version 6.1.1-3ubuntu5 Copyright (c) 2000-2023 the FFmpeg developers
  built with gcc 13 (Ubuntu 13.2.0-23ubuntu3)
  configuration: --prefix=/usr --extra-version=3ubuntu5 --toolchain=hardened --libdir=/usr/lib/x86_64-linux-gnu --incdir=/usr/include/x86_64-linux-gnu --arch=amd64 --enable-gpl --disable-stripping --disable-omx --enable-gnutls --enable-libaom --enable-libass --enable-libbs2b --enable-libcaca --enable-libcdio --enable-libcodec2 --enable-libdav1d --enable-libflite --enable-libfontconfig --enable-libfreetype --enable-libfribidi --enable-libglslang --enable-libgme --enable-libgsm --enable-libharfbuzz --enable-libmp3lame --enable-libmysofa --enable-libopenjpeg --enable-libopenmpt --enable-libopus --enable-librubberband --enable-libshine --enable-libsnappy --enable-libsoxr --enable-libspeex --enable-libtheora --enable-libtwolame --enable-libvidstab --enable-libvorbis --enable-libvpx --enable-libwebp --enable-libx265 --enable-libxml2 --enable-libxvid --enable-libzimg --enable-openal --enable-opencl --enable-opengl --disable-sndio --enable-libvpl --disable-libmfx --enable-libdc1394 --enable-libdrm --enable-libiec61883 --enable-chromaprint --enable-frei0r --enable-ladspa --enable-libbluray --enable-libjack --enable-libpulse --enable-librabbitmq --enable-librist --enable-libsrt --enable-libssh --enable-libsvtav1 --enable-libx264 --enable-libzmq --enable-libzvbi --enable-lv2 --enable-sdl2 --enable-libplacebo --enable-librav1e --enable-pocketsphinx --enable-librsvg --enable-libjxl --enable-shared
  libavutil      58. 29.100 / 58. 29.100
  libavcodec     60. 31.102 / 60. 31.102
  libavformat    60. 16.100 / 60. 16.100
  libavdevice    60.  3.100 / 60.  3.100
  libavfilter     9. 12.100 /  9. 12.100
  libswscale      7.  5.100 /  7.  5.100
  libswresample   4. 12.100 /  4. 12.100
  libpostproc    57.  3.100 / 57.  3.100
[aist#0:0/pcm_s16le @ 0x562e8317f040] Guessed Channel Layout: stereo
Input #0, pulse, from 'Upstairs_Living_room_speaker_RTP_sink.monitor':
  Duration: N/A, start: 1726527391.059789, bitrate: 1536 kb/s
  Stream #0:0: Audio: pcm_s16le, 48000 Hz, 2 channels, s16, 1536 kb/s
Stream mapping:
  Stream #0:0 -> #0:0 (pcm_s16le (native) -> pcm_mulaw (native))
Press [q] to stop, [?] for help
Output #0, rtp, to 'rtp://192.168.0.74:5004':
  Metadata:
    encoder         : Lavf60.16.100
  Stream #0:0: Audio: pcm_mulaw, 48000 Hz, stereo, s16, 768 kb/s
    Metadata:
      encoder         : Lavc60.31.102 pcm_mulaw
SDP:
v=0
o=- 0 0 IN IP4 127.0.0.1
s=No Name
c=IN IP4 192.168.0.74
t=0 0
a=tool:libavformat 60.16.100
m=audio 5004 RTP/AVP 97
b=AS:768
a=rtpmap:97 PCMU/48000/2

size=       0kB time=00:00:00.00 bitrate=N/A speed=N/A    size=      19kB time=00:00:00.59 bitrate= 261.4kbits/s speed=1.07x    size=      38kB time=00:00:00.69 bitrate= 448.5kbits/s speed=0.222x    size=      57kB time=00:00:00.87 bitrate= 532.9kbits/s speed=0.141x    size=      76kB time=00:00:01.08 bitrate= 569.7kbits/s speed=0.118x    size=      95kB time=00:00:01.30 bitrate= 596.9kbits/s speed=0.106x    size=     114kB time=00:00:01.49 bitrate= 623.1kbits/s speed=0.0971x    size=     133kB time=00:00:01.69 bitrate= 639.8kbits/s speed=0.092x    size=     152kB time=00:00:01.89 bitrate= 655.2kbits/s speed=0.088x    size=     171kB time=00:00:02.09 bitrate= 667.3kbits/s speed=0.0851x    size=     190kB time=00:00:02.84 bitrate= 545.8kbits/s speed=0.103x    size=     208kB time=00:00:05.58 bitrate= 305.7kbits/s speed=0.182x    size=     227kB time=00:00:09.35 bitrate= 199.0kbits/s speed=0.277x    size=     246kB time=00:00:11.93 bitrate= 169.1kbits/s speed=0.323x    size=     265kB time=00:00:14.93 bitrate= 145.5kbits/s speed=0.374x    size=     284kB time=00:00:18.52 bitrate= 125.7kbits/s speed=0.43x    size=     303kB time=00:00:21.86 bitrate= 113.6kbits/s speed=0.474x    size=     322kB time=00:00:24.81 bitrate= 106.4kbits/s speed=0.504x    size=     341kB time=00:00:27.82 bitrate= 100.4kbits/s speed=0.532x    size=     360kB time=00:00:30.88 bitrate=  95.5kbits/s speed=0.558x    size=     379kB time=00:00:34.02 bitrate=  91.3kbits/s speed=0.583x    size=     398kB time=00:00:36.95 bitrate=  88.2kbits/s speed=0.601x    size=     417kB time=00:00:39.98 bitrate=  85.4kbits/s speed=0.619x    size=     436kB time=00:00:43.19 bitrate=  82.7kbits/s speed=0.639x    size=     455kB time=00:00:46.26 bitrate=  80.5kbits/s speed=0.654x    size=     474kB time=00:00:49.07 bitrate=  79.1kbits/s speed=0.665x    size=     493kB time=00:00:51.77 bitrate=  78.0kbits/s speed=0.674x    size=     512kB time=00:00:55.37 bitrate=  75.7kbits/s speed=0.693x    size=     531kB time=00:00:58.26 bitrate=  74.6kbits/s speed=0.702x    size=     554kB time=00:01:01.58 bitrate=  73.7kbits/s speed=0.716x    size=     573kB time=00:01:04.97 bitrate=  72.3kbits/s speed=0.729x    size=     592kB time=00:01:07.53 bitrate=  71.8kbits/s speed=0.733x    size=     611kB time=00:01:10.70 bitrate=  70.8kbits/s speed=0.742x    size=     630kB time=00:01:13.37 bitrate=  70.4kbits/s speed=0.746x    size=     649kB time=00:01:16.42 bitrate=  69.6kbits/s speed=0.754x    size=     668kB time=00:01:19.99 bitrate=  68.4kbits/s speed=0.766x    size=     687kB time=00:01:22.49 bitrate=  68.2kbits/s speed=0.767x    size=     706kB time=00:01:26.40 bitrate=  66.9kbits/s speed=0.781x    size=     725kB time=00:01:29.35 bitrate=  66.5kbits/s speed=0.786x    size=     744kB time=00:01:32.32 bitrate=  66.0kbits/s speed=0.791x    size=     763kB time=00:01:35.38 bitrate=  65.5kbits/s speed=0.796x    size=     782kB time=00:01:38.41 bitrate=  65.1kbits/s speed=0.801x    size=     801kB time=00:01:41.61 bitrate=  64.6kbits/s speed=0.806x    size=     820kB time=00:01:44.64 bitrate=  64.2kbits/s speed=0.811x    size=     843kB time=00:01:47.25 bitrate=  64.4kbits/s speed=0.812x    size=     862kB time=00:01:50.94 bitrate=  63.7kbits/s speed=0.821x    size=     881kB time=00:01:53.75 bitrate=  63.5kbits/s speed=0.823x    size=     900kB time=00:01:56.30 bitrate=  63.4kbits/s speed=0.823x    size=     919kB time=00:01:59.93 bitrate=  62.8kbits/s speed=0.83x    size=     938kB time=00:02:02.73 bitrate=  62.6kbits/s speed=0.832x    size=     957kB time=00:02:06.08 bitrate=  62.2kbits/s speed=0.837x    size=     976kB time=00:02:09.16 bitrate=  61.9kbits/s speed=0.841x    size=     995kB time=00:02:11.79 bitrate=  61.8kbits/s speed=0.841x    size=    1014kB time=00:02:14.88 bitrate=  61.6kbits/s speed=0.844x    size=    1033kB time=00:02:17.94 bitrate=  61.3kbits/s speed=0.847x    size=    1052kB time=00:02:20.99 bitrate=  61.1kbits/s speed=0.85x    size=    1071kB time=00:02:24.02 bitrate=  60.9kbits/s speed=0.852x    size=    1090kB time=00:02:26.36 bitrate=  61.0kbits/s speed=0.851x    size=    1109kB time=00:02:30.91 bitrate=  60.2kbits/s speed=0.862x    size=    1128kB time=00:02:33.90 bitrate=  60.0kbits/s speed=0.864x    size=    1147kB time=00:02:36.86 bitrate=  59.9kbits/s speed=0.865x    size=    1166kB time=00:02:39.97 bitrate=  59.7kbits/s speed=0.868x    size=    1184kB time=00:02:43.06 bitrate=  59.5kbits/s speed=0.87x    size=    1203kB time=00:02:45.98 bitrate=  59.4kbits/s speed=0.871x    size=    1222kB time=00:02:48.82 bitrate=  59.3kbits/s speed=0.872x    size=    1241kB time=00:02:52.02 bitrate=  59.1kbits/s speed=0.875x    size=    1260kB time=00:02:55.32 bitrate=  58.9kbits/s speed=0.878x    size=    1279kB time=00:02:58.13 bitrate=  58.8kbits/s speed=0.878x    size=    1298kB time=00:03:01.16 bitrate=  58.7kbits/s speed=0.88x    size=    1317kB time=00:03:04.50 bitrate=  58.5kbits/s speed=0.883x    size=    1336kB time=00:03:07.54 bitrate=  58.4kbits/s speed=0.885x    size=    1355kB time=00:03:10.22 bitrate=  58.4kbits/s speed=0.884x    size=    1379kB time=00:03:13.33 bitrate=  58.4kbits/s speed=0.886x    size=    1398kB time=00:03:16.86 bitrate=  58.2kbits/s speed=0.89x    size=    1417kB time=00:03:19.25 bitrate=  58.2kbits/s speed=0.888x    size=    1436kB time=00:03:22.85 bitrate=  58.0kbits/s speed=0.892x    size=    1454kB time=00:03:25.47 bitrate=  58.0kbits/s speed=0.892x    size=    1473kB time=00:03:28.97 bitrate=  57.8kbits/s speed=0.895x    size=    1492kB time=00:03:31.54 bitrate=  57.8kbits/s speed=0.894x    size=    1511kB time=00:03:35.43 bitrate=  57.5kbits/s speed=0.899x    size=    1530kB time=00:03:38.41 bitrate=  57.4kbits/s speed= 0.9x    size=    1549kB time=00:03:41.39 bitrate=  57.3kbits/s speed=0.901x    size=    1568kB time=00:03:44.42 bitrate=  57.2kbits/s speed=0.902x    size=    1587kB time=00:03:47.54 bitrate=  57.1kbits/s speed=0.903x    size=    1606kB time=00:03:50.50 bitrate=  57.1kbits/s speed=0.904x    size=    1625kB time=00:03:53.34 bitrate=  57.1kbits/s speed=0.904x    size=    1644kB time=00:03:56.33 bitrate=  57.0kbits/s speed=0.905x    size=    1663kB time=00:03:59.57 bitrate=  56.9kbits/s speed=0.907x    size=    1682kB time=00:04:02.70 bitrate=  56.8kbits/s speed=0.908x    size=    1701kB time=00:04:05.69 bitrate=  56.7kbits/s speed=0.909x    size=    1720kB time=00:04:09.02 bitrate=  56.6kbits/s speed=0.911x    size=    1739kB time=00:04:12.05 bitrate=  56.5kbits/s speed=0.912x    size=    1758kB time=00:04:14.75 bitrate=  56.5kbits/s speed=0.911x    size=    1777kB time=00:04:17.83 bitrate=  56.4kbits/s speed=0.912x    size=    1800kB time=00:04:21.25 bitrate=  56.5kbits/s speed=0.914x    size=    1819kB time=00:04:24.38 bitrate=  56.4kbits/s speed=0.915x    size=    1838kB time=00:04:26.82 bitrate=  56.4kbits/s speed=0.914x    size=    1857kB time=00:04:30.43 bitrate=  56.3kbits/s speed=0.917x    size=    1876kB time=00:04:33.02 bitrate=  56.3kbits/s speed=0.916x    size=    1895kB time=00:04:36.03 bitrate=  56.2kbits/s speed=0.917x    size=    1914kB time=00:04:39.97 bitrate=  56.0kbits/s speed=0.92x    size=    1933kB time=00:04:42.89 bitrate=  56.0kbits/s speed=0.921x    size=    1952kB time=00:04:45.94 bitrate=  55.9kbits/s speed=0.921x    size=    1971kB time=00:04:49.00 bitrate=  55.9kbits/s speed=0.922x    size=    1990kB time=00:04:51.82 bitrate=  55.9kbits/s speed=0.922x    size=    2009kB time=00:04:55.12 bitrate=  55.8kbits/s speed=0.924x    size=    2028kB time=00:04:57.85 bitrate=  55.8kbits/s speed=0.923x    size=    2047kB time=00:05:01.03 bitrate=  55.7kbits/s speed=0.924x    size=    2066kB time=00:05:04.34 bitrate=  55.6kbits/s speed=0.926x    size=    2085kB time=00:05:07.39 bitrate=  55.6kbits/s speed=0.926x    size=    2104kB time=00:05:10.16 bitrate=  55.6kbits/s speed=0.926x    size=    2123kB time=00:05:13.23 bitrate=  55.5kbits/s speed=0.927x    size=    2141kB time=00:05:16.28 bitrate=  55.5kbits/s speed=0.927x    size=    2160kB time=00:05:19.66 bitrate=  55.4kbits/s speed=0.929x    size=    2179kB time=00:05:22.68 bitrate=  55.3kbits/s speed=0.929x    size=    2198kB time=00:05:25.75 bitrate=  55.3kbits/s speed=0.93x    size=    2217kB time=00:05:28.39 bitrate=  55.3kbits/s speed=0.929x    size=    2236kB time=00:05:31.85 bitrate=  55.2kbits/s speed=0.931x    size=    2255kB time=00:05:34.49 bitrate=  55.2kbits/s speed=0.931x    size=    2274kB time=00:05:37.51 bitrate=  55.2kbits/s speed=0.931x    size=    2293kB time=00:05:41.11 bitrate=  55.1kbits/s speed=0.933x    size=    2312kB time=00:05:44.12 bitrate=  55.0kbits/s speed=0.933x    size=    2331kB time=00:05:47.45 bitrate=  55.0kbits/s speed=0.935x    size=    2350kB time=00:05:50.35 bitrate=  54.9kbits/s speed=0.935x    size=    2369kB time=00:05:53.44 bitrate=  54.9kbits/s speed=0.935x    size=    2388kB time=00:05:56.50 bitrate=  54.9kbits/s speed=0.936x    size=    2407kB time=00:05:59.53 bitrate=  54.8kbits/s speed=0.936x    size=    2426kB time=00:06:02.72 bitrate=  54.8kbits/s speed=0.937x    size=    2449kB time=00:06:05.76 bitrate=  54.9kbits/s speed=0.937x    size=    2468kB time=00:06:08.99 bitrate=  54.8kbits/s speed=0.938x    size=    2487kB time=00:06:11.55 bitrate=  54.8kbits/s speed=0.938x    size=    2506kB time=00:06:14.72 bitrate=  54.8kbits/s speed=0.938x    size=    2525kB time=00:06:17.78 bitrate=  54.8kbits/s speed=0.939x    size=    2544kB time=00:06:21.08 bitrate=  54.7kbits/s speed=0.94x    size=    2563kB time=00:06:23.40 bitrate=  54.8kbits/s speed=0.938x    size=    2582kB time=00:06:27.18 bitrate=  54.6kbits/s speed=0.94x    size=    2601kB time=00:06:29.94 bitrate=  54.6kbits/s speed=0.94x    size=    2620kB time=00:06:32.94 bitrate=  54.6kbits/s speed=0.94x    size=    2639kB time=00:06:36.01 bitrate=  54.6kbits/s speed=0.941x    size=    2658kB time=00:06:39.04 bitrate=  54.6kbits/s speed=0.941x    size=    2677kB time=00:06:42.57 bitrate=  54.5kbits/s speed=0.943x    size=    2696kB time=00:06:45.09 bitrate=  54.5kbits/s speed=0.942x    size=    2715kB time=00:06:48.11 bitrate=  54.5kbits/s speed=0.942x    size=    2734kB time=00:06:52.01 bitrate=  54.4kbits/s speed=0.944x    size=    2753kB time=00:06:54.97 bitrate=  54.3kbits/s speed=0.945x    size=    2772kB time=00:06:58.04 bitrate=  54.3kbits/s speed=0.945x    size=    2791kB time=00:07:01.09 bitrate=  54.3kbits/s speed=0.945x    size=    2810kB time=00:07:04.16 bitrate=  54.3kbits/s speed=0.946x    size=    2828kB time=00:07:07.08 bitrate=  54.3kbits/s speed=0.946x    size=    2847kB time=00:07:10.10 bitrate=  54.2kbits/s speed=0.946x    size=    2871kB time=00:07:13.16 bitrate=  54.3kbits/s speed=0.946x    size=    2890kB time=00:07:16.68 bitrate=  54.2kbits/s speed=0.948x    size=    2909kB time=00:07:18.74 bitrate=  54.3kbits/s speed=0.946x    size=    2928kB time=00:07:22.49 bitrate=  54.2kbits/s speed=0.948x    size=    2947kB time=00:07:25.34 bitrate=  54.2kbits/s speed=0.947x    size=    2966kB time=00:07:28.33 bitrate=  54.2kbits/s speed=0.948x    size=    2985kB time=00:07:31.39 bitrate=  54.2kbits/s speed=0.948x    size=    3004kB time=00:07:34.43 bitrate=  54.1kbits/s speed=0.948x    size=    3023kB time=00:07:36.92 bitrate=  54.2kbits/s speed=0.947x    size=    3042kB time=00:07:40.90 bitrate=  54.1kbits/s speed=0.95x    size=    3061kB time=00:07:43.55 bitrate=  54.1kbits/s speed=0.949x    size=    3080kB time=00:07:47.03 bitrate=  54.0kbits/s speed=0.95x    size=    3098kB time=00:07:49.58 bitrate=  54.1kbits/s speed=0.949x    size=    3117kB time=00:07:51.91 bitrate=  54.1kbits/s speed=0.948x    size=    3136kB time=00:07:56.52 bitrate=  53.9kbits/s speed=0.952x    size=    3155kB time=00:07:59.54 bitrate=  53.9kbits/s speed=0.952x    size=    3174kB time=00:08:02.49 bitrate=  53.9kbits/s speed=0.952x    size=    3193kB time=00:08:05.58 bitrate=  53.9kbits/s speed=0.952x    size=    3212kB time=00:08:08.55 bitrate=  53.9kbits/s speed=0.952x    size=    3231kB time=00:08:11.73 bitrate=  53.8kbits/s speed=0.953x    size=    3250kB time=00:08:14.77 bitrate=  53.8kbits/s speed=0.953x    size=    3269kB time=00:08:17.86 bitrate=  53.8kbits/s speed=0.953x    size=    3288kB time=00:08:20.40 bitrate=  53.8kbits/s speed=0.953x    size=    3307kB time=00:08:23.93 bitrate=  53.8kbits/s speed=0.954x    size=    3326kB time=00:08:26.46 bitrate=  53.8kbits/s speed=0.953x    size=    3345kB time=00:08:30.07 bitrate=  53.7kbits/s speed=0.954x    size=    3364kB time=00:08:33.19 bitrate=  53.7kbits/s speed=0.955x    size=    3383kB time=00:08:35.40 bitrate=  53.8kbits/s speed=0.953x    size=    3402kB time=00:08:39.27 bitrate=  53.7kbits/s speed=0.955x    size=    3421kB time=00:08:42.38 bitrate=  53.6kbits/s speed=0.955x    size=    3440kB time=00:08:45.40 bitrate=  53.6kbits/s speed=0.955x    size=    3459kB time=00:08:48.44 bitrate=  53.6kbits/s speed=0.956x    size=    3478kB time=00:08:51.53 bitrate=  53.6kbits/s speed=0.956x    size=    3496kB time=00:08:54.08 bitrate=  53.6kbits/s speed=0.955x    size=    3515kB time=00:08:57.13 bitrate=  53.6kbits/s speed=0.955x    size=    3534kB time=00:09:01.07 bitrate=  53.5kbits/s speed=0.957x    size=    3553kB time=00:09:04.04 bitrate=  53.5kbits/s speed=0.957x    size=    3572kB time=00:09:07.05 bitrate=  53.5kbits/s speed=0.957x    size=    3591kB time=00:09:10.12 bitrate=  53.5kbits/s speed=0.958x    size=    3610kB time=00:09:13.19 bitrate=  53.5kbits/s speed=0.958x    size=    3629kB time=00:09:16.10 bitrate=  53.5kbits/s speed=0.958x    size=    3648kB time=00:09:19.17 bitrate=  53.4kbits/s speed=0.958x    size=    3667kB time=00:09:21.97 bitrate=  53.5kbits/s speed=0.958x    size=    3686kB time=00:09:25.15 bitrate=  53.4kbits/s speed=0.958x    size=    3705kB time=00:09:28.55 bitrate=  53.4kbits/s speed=0.959x    size=    3724kB time=00:09:31.30 bitrate=  53.4kbits/s speed=0.959x    size=    3743kB time=00:09:34.63 bitrate=  53.4kbits/s speed=0.959x    size=    3762kB time=00:09:37.68 bitrate=  53.3kbits/s speed=0.959x    size=    3781kB time=00:09:40.40 bitrate=  53.4kbits/s speed=0.959x    size=    3800kB time=00:09:43.81 bitrate=  53.3kbits/s speed=0.96x    size=    3819kB time=00:09:46.85 bitrate=  53.3kbits/s speed=0.96x    size=    3838kB time=00:09:48.94 bitrate=  53.4kbits/s speed=0.959x    size=    3857kB time=00:09:51.96 bitrate=  53.4kbits/s speed=0.959x    size=    3876kB time=00:09:55.65 bitrate=  53.3kbits/s speed=0.96x    size=    3894kB time=00:09:58.05 bitrate=  53.3kbits/s speed=0.959x    size=    3913kB time=00:10:01.54 bitrate=  53.3kbits/s speed=0.96x    size=    3932kB time=00:10:05.70 bitrate=  53.2kbits/s speed=0.962x    size=    3951kB time=00:10:08.58 bitrate=  53.2kbits/s speed=0.962x    size=    3970kB time=00:10:11.43 bitrate=  53.2kbits/s speed=0.961x    size=    3989kB time=00:10:14.45 bitrate=  53.2kbits/s speed=0.962x    size=    4008kB time=00:10:17.60 bitrate=  53.2kbits/s speed=0.962x    size=    4027kB time=00:10:20.76 bitrate=  53.1kbits/s speed=0.962x    size=    4046kB time=00:10:23.67 bitrate=  53.1kbits/s speed=0.962x    size=    4065kB time=00:10:26.88 bitrate=  53.1kbits/s speed=0.963x    size=    4084kB time=00:10:29.75 bitrate=  53.1kbits/s speed=0.962x    size=    4103kB time=00:10:32.78 bitrate=  53.1kbits/s speed=0.962x    size=    4122kB time=00:10:35.84 bitrate=  53.1kbits/s speed=0.963x    size=    4141kB time=00:10:38.48 bitrate=  53.1kbits/s speed=0.962x    size=    4160kB time=00:10:42.18 bitrate=  53.1kbits/s speed=0.963x    size=    4179kB time=00:10:45.29 bitrate=  53.0kbits/s speed=0.964x    size=    4198kB time=00:10:47.93 bitrate=  53.1kbits/s speed=0.963x    size=    4217kB time=00:10:51.39 bitrate=  53.0kbits/s speed=0.964x    size=    4236kB time=00:10:54.04 bitrate=  53.1kbits/s speed=0.963x    size=    4255kB time=00:10:56.47 bitrate=  53.1kbits/s speed=0.963x    size=    4273kB time=00:11:00.12 bitrate=  53.0kbits/s speed=0.964x    size=    4292kB time=00:11:03.21 bitrate=  53.0kbits/s speed=0.964x    size=    4311kB time=00:11:06.72 bitrate=  53.0kbits/s speed=0.965x    size=    4330kB time=00:11:10.05 bitrate=  52.9kbits/s speed=0.965x    size=    4349kB time=00:11:13.03 bitrate=  52.9kbits/s speed=0.965x    size=    4368kB time=00:11:16.01 bitrate=  52.9kbits/s speed=0.965x    size=    4387kB time=00:11:19.16 bitrate=  52.9kbits/s speed=0.965x    size=    4406kB time=00:11:22.21 bitrate=  52.9kbits/s speed=0.965x    size=    4425kB time=00:11:25.14 bitrate=  52.9kbits/s speed=0.965x    size=    4444kB time=00:11:28.34 bitrate=  52.9kbits/s speed=0.966x    size=    4463kB time=00:11:31.38 bitrate=  52.9kbits/s speed=0.966x    size=    4482kB time=00:11:34.45 bitrate=  52.9kbits/s speed=0.966x    size=    4501kB time=00:11:37.51 bitrate=  52.9kbits/s speed=0.966x    size=    4520kB time=00:11:40.58 bitrate=  52.9kbits/s speed=0.966x    size=    4539kB time=00:11:43.62 bitrate=  52.8kbits/s speed=0.966x    size=    4558kB time=00:11:46.71 bitrate=  52.8kbits/s speed=0.967x    size=    4577kB time=00:11:49.44 bitrate=  52.8kbits/s speed=0.966x    size=    4596kB time=00:11:52.85 bitrate=  52.8kbits/s speed=0.967x    size=    4615kB time=00:11:55.54 bitrate=  52.8kbits/s speed=0.966x    size=    4634kB time=00:11:58.02 bitrate=  52.9kbits/s speed=0.966x    size=    4652kB time=00:12:01.61 bitrate=  52.8kbits/s speed=0.967x    size=    4671kB time=00:12:04.70 bitrate=  52.8kbits/s speed=0.967x    size=    4690kB time=00:12:08.18 bitrate=  52.8kbits/s speed=0.967x    size=    4709kB time=00:12:10.03 bitrate=  52.8kbits/s speed=0.966x    size=    4728kB time=00:12:12.86 bitrate=  52.9kbits/s speed=0.966x    size=    4747kB time=00:12:17.60 bitrate=  52.7kbits/s speed=0.968x    size=    4766kB time=00:12:20.72 bitrate=  52.7kbits/s speed=0.968x    size=    4785kB time=00:12:23.59 bitrate=  52.7kbits/s speed=0.968x    size=    4804kB time=00:12:26.71 bitrate=  52.7kbits/s speed=0.968x    size=    4823kB time=00:12:29.50 bitrate=  52.7kbits/s speed=0.968x    size=    4842kB time=00:12:32.69 bitrate=  52.7kbits/s speed=0.968x    size=    4861kB time=00:12:35.95 bitrate=  52.7kbits/s speed=0.969x    size=    4880kB time=00:12:38.77 bitrate=  52.7kbits/s speed=0.969x    size=    4899kB time=00:12:41.82 bitrate=  52.7kbits/s speed=0.969x    size=    4918kB time=00:12:44.87 bitrate=  52.7kbits/s speed=0.969x    size=    4937kB time=00:12:47.89 bitrate=  52.7kbits/s speed=0.969x    size=    4956kB time=00:12:51.24 bitrate=  52.6kbits/s speed=0.969x    size=    4979kB time=00:12:54.27 bitrate=  52.7kbits/s speed=0.969x    size=    4998kB time=00:12:57.44 bitrate=  52.7kbits/s speed=0.97x    size=    5017kB time=00:12:59.40 bitrate=  52.7kbits/s speed=0.968x    size=    5036kB time=00:13:03.05 bitrate=  52.7kbits/s speed=0.969x    size=    5055kB time=00:13:06.18 bitrate=  52.7kbits/s speed=0.969x    size=    5074kB time=00:13:09.18 bitrate=  52.7kbits/s speed=0.969x    size=    5093kB time=00:13:11.56 bitrate=  52.7kbits/s speed=0.969x    size=    5112kB time=00:13:15.20 bitrate=  52.7kbits/s speed=0.969x    size=    5136kB time=00:13:18.86 bitrate=  52.7kbits/s speed=0.97x    size=    5155kB time=00:13:22.33 bitrate=  52.6kbits/s speed=0.971x    size=    5174kB time=00:13:24.93 bitrate=  52.7kbits/s speed=0.97x    [rtp @ 0x562e8317fbc0] Non-monotonic DTS in output stream 0:0; previous: 38512083, current: 38511628; changing to 38512083. This may result in incorrect timestamps in the output file.
size=    5193kB time=00:13:28.15 bitrate=  52.6kbits/s speed=0.971x    size=    5212kB time=00:13:31.01 bitrate=  52.6kbits/s speed=0.971x    size=    5230kB time=00:13:34.27 bitrate=  52.6kbits/s speed=0.971x    size=    5249kB time=00:13:37.36 bitrate=  52.6kbits/s speed=0.971x    size=    5268kB time=00:13:40.42 bitrate=  52.6kbits/s speed=0.971x    size=    5287kB time=00:13:43.27 bitrate=  52.6kbits/s speed=0.971x    size=    5306kB time=00:13:46.55 bitrate=  52.6kbits/s speed=0.971x    size=    5325kB time=00:13:49.61 bitrate=  52.6kbits/s speed=0.971x    size=    5344kB time=00:13:52.67 bitrate=  52.6kbits/s speed=0.971x    size=    5363kB time=00:13:55.71 bitrate=  52.6kbits/s speed=0.972x    size=    5382kB time=00:13:58.05 bitrate=  52.6kbits/s speed=0.971x    size=    5401kB time=00:14:01.75 bitrate=  52.6kbits/s speed=0.972x    size=    5420kB time=00:14:04.98 bitrate=  52.5kbits/s speed=0.972x    size=    5444kB time=00:14:07.97 bitrate=  52.6kbits/s speed=0.972x    size=    5463kB time=00:14:11.34 bitrate=  52.6kbits/s speed=0.972x    size=    5482kB time=00:14:13.96 bitrate=  52.6kbits/s speed=0.972x    size=    5501kB time=00:14:17.12 bitrate=  52.6kbits/s speed=0.972x    size=    5520kB time=00:14:19.01 bitrate=  52.6kbits/s speed=0.971x    size=    5538kB time=00:14:22.62 bitrate=  52.6kbits/s speed=0.972x    size=    5557kB time=00:14:26.81 bitrate=  52.5kbits/s speed=0.973x    size=    5576kB time=00:14:29.64 bitrate=  52.5kbits/s speed=0.973x    size=    5595kB time=00:14:32.67 bitrate=  52.5kbits/s speed=0.973x    size=    5614kB time=00:14:35.76 bitrate=  52.5kbits/s speed=0.973x    size=    5633kB time=00:14:38.68 bitrate=  52.5kbits/s speed=0.973x    size=    5652kB time=00:14:41.76 bitrate=  52.5kbits/s speed=0.973x    size=    5671kB time=00:14:44.57 bitrate=  52.5kbits/s speed=0.973x    size=    5690kB time=00:14:47.79 bitrate=  52.5kbits/s speed=0.973x    size=    5714kB time=00:14:51.12 bitrate=  52.5kbits/s speed=0.973x    size=    5733kB time=00:14:54.23 bitrate=  52.5kbits/s speed=0.974x    size=    5752kB time=00:14:56.81 bitrate=  52.5kbits/s speed=0.973x    size=    5771kB time=00:14:59.95 bitrate=  52.5kbits/s speed=0.973x    size=    5790kB time=00:15:03.03 bitrate=  52.5kbits/s speed=0.973x    size=    5808kB time=00:15:06.06 bitrate=  52.5kbits/s speed=0.973x    size=    5827kB time=00:15:08.59 bitrate=  52.5kbits/s speed=0.973x    size=    5846kB time=00:15:12.00 bitrate=  52.5kbits/s speed=0.973x    size=    5865kB time=00:15:15.69 bitrate=  52.5kbits/s speed=0.974x    size=    5884kB time=00:15:17.58 bitrate=  52.5kbits/s speed=0.973x    size=    5903kB time=00:15:21.04 bitrate=  52.5kbits/s speed=0.973x    size=    5922kB time=00:15:24.39 bitrate=  52.5kbits/s speed=0.974x    size=    5941kB time=00:15:27.84 bitrate=  52.5kbits/s speed=0.974x    size=    5965kB time=00:15:31.17 bitrate=  52.5kbits/s speed=0.975x    size=    5984kB time=00:15:34.37 bitrate=  52.5kbits/s speed=0.975x    size=    6003kB time=00:15:37.08 bitrate=  52.5kbits/s speed=0.975x    size=    6022kB time=00:15:40.04 bitrate=  52.5kbits/s speed=0.974x    size=    6041kB time=00:15:43.34 bitrate=  52.5kbits/s speed=0.975x    size=    6060kB time=00:15:46.41 bitrate=  52.5kbits/s speed=0.975x    size=    6079kB time=00:15:49.43 bitrate=  52.4kbits/s speed=0.975x    size=    6098kB time=00:15:52.52 bitrate=  52.4kbits/s speed=0.975x    size=    6116kB time=00:15:55.55 bitrate=  52.4kbits/s speed=0.975x    size=    6140kB time=00:15:58.39 bitrate=  52.5kbits/s speed=0.975x    size=    6159kB time=00:16:02.01 bitrate=  52.4kbits/s speed=0.976x    size=    6178kB time=00:16:04.33 bitrate=  52.5kbits/s speed=0.975x    size=    6197kB time=00:16:07.06 bitrate=  52.5kbits/s speed=0.975x    size=    6216kB time=00:16:10.10 bitrate=  52.5kbits/s speed=0.975x    size=    6235kB time=00:16:13.61 bitrate=  52.5kbits/s speed=0.975x    size=    6254kB time=00:16:16.67 bitrate=  52.5kbits/s speed=0.975x    size=    6273kB time=00:16:20.11 bitrate=  52.4kbits/s speed=0.976x    size=    6292kB time=00:16:22.68 bitrate=  52.5kbits/s speed=0.975x    size=    6315kB time=00:16:25.73 bitrate=  52.5kbits/s speed=0.975x    size=    6334kB time=00:16:29.67 bitrate=  52.4kbits/s speed=0.976x    size=    6353kB time=00:16:31.68 bitrate=  52.5kbits/s speed=0.975x    size=    6372kB time=00:16:35.69 bitrate=  52.4kbits/s speed=0.976x    size=    6391kB time=00:16:38.67 bitrate=  52.4kbits/s speed=0.976x    size=    6410kB time=00:16:41.71 bitrate=  52.4kbits/s speed=0.976x    size=    6429kB time=00:16:44.69 bitrate=  52.4kbits/s speed=0.976x    size=    6453kB time=00:16:47.87 bitrate=  52.4kbits/s speed=0.976x    size=    6472kB time=00:16:51.15 bitrate=  52.4kbits/s speed=0.977x    size=    6491kB time=00:16:53.43 bitrate=  52.5kbits/s speed=0.976x    size=    6510kB time=00:16:56.79 bitrate=  52.4kbits/s speed=0.976x    size=    6529kB time=00:16:59.96 bitrate=  52.4kbits/s speed=0.976x    size=    6552kB time=00:17:02.93 bitrate=  52.5kbits/s speed=0.976x    size=    6571kB time=00:17:05.77 bitrate=  52.5kbits/s speed=0.976x    size=    6590kB time=00:17:09.10 bitrate=  52.5kbits/s speed=0.977x    [rtp @ 0x562e8317fbc0] Non-monotonic DTS in output stream 0:0; previous: 49237439, current: 49237021; changing to 49237439. This may result in incorrect timestamps in the output file.
size=    6609kB time=00:17:12.06 bitrate=  52.5kbits/s speed=0.977x    size=    6628kB time=00:17:15.42 bitrate=  52.4kbits/s speed=0.977x    size=    6652kB time=00:17:17.62 bitrate=  52.5kbits/s speed=0.976x    size=    6671kB time=00:17:21.27 bitrate=  52.5kbits/s speed=0.977x    size=    6690kB time=00:17:24.55 bitrate=  52.5kbits/s speed=0.977x    size=    6709kB time=00:17:27.20 bitrate=  52.5kbits/s speed=0.977x    size=    6732kB time=00:17:30.72 bitrate=  52.5kbits/s speed=0.977x    size=    6751kB time=00:17:34.10 bitrate=  52.5kbits/s speed=0.978x    size=    6770kB time=00:17:35.46 bitrate=  52.5kbits/s speed=0.976x    size=    6789kB time=00:17:40.17 bitrate=  52.5kbits/s speed=0.978x    size=    6808kB time=00:17:43.27 bitrate=  52.5kbits/s speed=0.978x    size=    6827kB time=00:17:46.18 bitrate=  52.5kbits/s speed=0.978x    size=    6846kB time=00:17:49.32 bitrate=  52.4kbits/s speed=0.978x    size=    6865kB time=00:17:52.36 bitrate=  52.4kbits/s speed=0.978x    size=    6884kB time=00:17:55.40 bitrate=  52.4kbits/s speed=0.978x    size=    6903kB time=00:17:58.07 bitrate=  52.5kbits/s speed=0.978x    size=    6922kB time=00:18:01.53 bitrate=  52.4kbits/s speed=0.978x    size=    6941kB time=00:18:04.64 bitrate=  52.4kbits/s speed=0.978x    size=    6960kB time=00:18:07.44 bitrate=  52.4kbits/s speed=0.978x    size=    6979kB time=00:18:10.74 bitrate=  52.4kbits/s speed=0.978x    size=    6998kB time=00:18:13.13 bitrate=  52.4kbits/s speed=0.978x    size=    7017kB time=00:18:16.04 bitrate=  52.4kbits/s speed=0.977x    size=    7036kB time=00:18:19.56 bitrate=  52.4kbits/s speed=0.978x    size=    7055kB time=00:18:22.71 bitrate=  52.4kbits/s speed=0.978x    size=    7078kB time=00:18:25.17 bitrate=  52.5kbits/s speed=0.978x    size=    7097kB time=00:18:28.80 bitrate=  52.4kbits/s speed=0.978x    size=    7116kB time=00:18:32.16 bitrate=  52.4kbits/s speed=0.978x    size=    7135kB time=00:18:35.23 bitrate=  52.4kbits/s speed=0.978x    size=    7154kB time=00:18:38.27 bitrate=  52.4kbits/s speed=0.979x    size=    7178kB time=00:18:41.32 bitrate=  52.4kbits/s speed=0.979x    size=    7197kB time=00:18:44.88 bitrate=  52.4kbits/s speed=0.979x    size=    7216kB time=00:18:47.56 bitrate=  52.4kbits/s speed=0.979x    size=    7235kB time=00:18:50.73 bitrate=  52.4kbits/s speed=0.979x    size=    7253kB time=00:18:53.84 bitrate=  52.4kbits/s speed=0.979x    size=    7272kB time=00:18:56.86 bitrate=  52.4kbits/s speed=0.979x    size=    7296kB time=00:18:59.61 bitrate=  52.4kbits/s speed=0.979x    size=    7315kB time=00:19:03.26 bitrate=  52.4kbits/s speed=0.979x    size=    7334kB time=00:19:05.96 bitrate=  52.4kbits/s speed=0.979x    size=    7353kB time=00:19:08.89 bitrate=  52.4kbits/s speed=0.979x    size=    7372kB time=00:19:12.17 bitrate=  52.4kbits/s speed=0.979x    size=    7391kB time=00:19:15.24 bitrate=  52.4kbits/s speed=0.979x    size=    7415kB time=00:19:18.01 bitrate=  52.5kbits/s speed=0.979x    size=    7434kB time=00:19:21.70 bitrate=  52.4kbits/s speed=0.98x    size=    7452kB time=00:19:24.27 bitrate=  52.4kbits/s speed=0.979x    size=    7471kB time=00:19:27.47 bitrate=  52.4kbits/s speed=0.979x    size=    7495kB time=00:19:30.17 bitrate=  52.5kbits/s speed=0.979x    size=    7514kB time=00:19:32.73 bitrate=  52.5kbits/s speed=0.979x    size=    7533kB time=00:19:35.55 bitrate=  52.5kbits/s speed=0.979x    size=    7552kB time=00:19:39.76 bitrate=  52.4kbits/s speed=0.98x    size=    7571kB time=00:19:41.73 bitrate=  52.5kbits/s speed=0.979x    size=    7590kB time=00:19:45.82 bitrate=  52.4kbits/s speed=0.98x    size=    7609kB time=00:19:49.31 bitrate=  52.4kbits/s speed=0.98x    size=    7633kB time=00:19:52.21 bitrate=  52.4kbits/s speed=0.98x    size=    7651kB time=00:19:55.42 bitrate=  52.4kbits/s speed=0.98x    size=    7670kB time=00:19:58.20 bitrate=  52.4kbits/s speed=0.98x    size=    7689kB time=00:20:01.28 bitrate=  52.4kbits/s speed=0.98x    size=    7708kB time=00:20:04.34 bitrate=  52.4kbits/s speed=0.98x    size=    7732kB time=00:20:07.17 bitrate=  52.5kbits/s speed=0.98x    size=    7751kB time=00:20:10.35 bitrate=  52.5kbits/s speed=0.98x    size=    7770kB time=00:20:13.53 bitrate=  52.5kbits/s speed=0.98x    size=    7789kB time=00:20:16.17 bitrate=  52.5kbits/s speed=0.98x    size=    7808kB time=00:20:19.69 bitrate=  52.4kbits/s speed=0.98x    size=    7827kB time=00:20:22.89 bitrate=  52.4kbits/s speed=0.98x    size=    7846kB time=00:20:25.87 bitrate=  52.4kbits/s speed=0.98x    size=    7865kB time=00:20:28.91 bitrate=  52.4kbits/s speed=0.98x    size=    7884kB time=00:20:31.99 bitrate=  52.4kbits/s speed=0.981x    size=    7907kB time=00:20:35.04 bitrate=  52.4kbits/s speed=0.981x    size=    7926kB time=00:20:38.46 bitrate=  52.4kbits/s speed=0.981x    size=    7945kB time=00:20:41.02 bitrate=  52.4kbits/s speed=0.981x    size=    7964kB time=00:20:43.13 bitrate=  52.5kbits/s speed=0.98x    size=    7983kB time=00:20:46.70 bitrate=  52.5kbits/s speed=0.98x    size=    8002kB time=00:20:50.53 bitrate=  52.4kbits/s speed=0.981x    size=    8021kB time=00:20:53.45 bitrate=  52.4kbits/s speed=0.981x    size=    8040kB time=00:20:56.77 bitrate=  52.4kbits/s speed=0.981x    size=    8059kB time=00:20:59.78 bitrate=  52.4kbits/s speed=0.981x    size=    8078kB time=00:21:02.76 bitrate=  52.4kbits/s speed=0.981x    size=    8097kB time=00:21:05.83 bitrate=  52.4kbits/s speed=0.981x    size=    8116kB time=00:21:08.83 bitrate=  52.4kbits/s speed=0.981x    size=    8135kB time=00:21:12.05 bitrate=  52.4kbits/s speed=0.981x    size=    8154kB time=00:21:14.94 bitrate=  52.4kbits/s speed=0.981x    size=    8173kB time=00:21:18.12 bitrate=  52.4kbits/s speed=0.981x    size=    8196kB time=00:21:20.98 bitrate=  52.4kbits/s speed=0.981x    size=    8215kB time=00:21:24.42 bitrate=  52.4kbits/s speed=0.981x    size=    8234kB time=00:21:27.22 bitrate=  52.4kbits/s speed=0.981x    size=    8253kB time=00:21:30.07 bitrate=  52.4kbits/s speed=0.981x    size=    8272kB time=00:21:33.17 bitrate=  52.4kbits/s speed=0.981x    size=    8291kB time=00:21:36.53 bitrate=  52.4kbits/s speed=0.981x    size=    8310kB time=00:21:39.60 bitrate=  52.4kbits/s speed=0.982x    size=    8329kB time=00:21:42.63 bitrate=  52.4kbits/s speed=0.982x    size=    8348kB time=00:21:45.66 bitrate=  52.4kbits/s speed=0.982x    size=    8367kB time=00:21:48.75 bitrate=  52.4kbits/s speed=0.982x    size=    8386kB time=00:21:51.80 bitrate=  52.4kbits/s speed=0.982x    size=    8405kB time=00:21:54.87 bitrate=  52.4kbits/s speed=0.982x    size=    8424kB time=00:21:57.92 bitrate=  52.4kbits/s speed=0.982x    size=    8443kB time=00:22:01.32 bitrate=  52.3kbits/s speed=0.982x    size=    8466kB time=00:22:04.31 bitrate=  52.4kbits/s speed=0.982x    size=    8485kB time=00:22:07.35 bitrate=  52.4kbits/s speed=0.982x    size=    8504kB time=00:22:10.21 bitrate=  52.4kbits/s speed=0.982x    size=    8523kB time=00:22:13.22 bitrate=  52.4kbits/s speed=0.982x    size=    8542kB time=00:22:16.53 bitrate=  52.4kbits/s speed=0.982x    size=    8561kB time=00:22:19.46 bitrate=  52.4kbits/s speed=0.982x    size=    8580kB time=00:22:22.48 bitrate=  52.4kbits/s speed=0.982x    size=    8599kB time=00:22:25.51 bitrate=  52.4kbits/s speed=0.982x    size=    8618kB time=00:22:28.82 bitrate=  52.3kbits/s speed=0.982x    size=    8642kB time=00:22:31.85 bitrate=  52.4kbits/s speed=0.982x    size=    8661kB time=00:22:35.17 bitrate=  52.4kbits/s speed=0.982x    size=    8680kB time=00:22:37.82 bitrate=  52.4kbits/s speed=0.982x    size=    8698kB time=00:22:40.99 bitrate=  52.4kbits/s speed=0.982x    size=    8717kB time=00:22:43.71 bitrate=  52.4kbits/s speed=0.982x    size=    8741kB time=00:22:47.16 bitrate=  52.4kbits/s speed=0.982x    size=    8760kB time=00:22:50.57 bitrate=  52.4kbits/s speed=0.983x    size=    8779kB time=00:22:52.08 bitrate=  52.4kbits/s speed=0.982x    size=    8798kB time=00:22:55.18 bitrate=  52.4kbits/s speed=0.982x    size=    8817kB time=00:22:58.84 bitrate=  52.4kbits/s speed=0.982x    size=    8836kB time=00:23:02.60 bitrate=  52.4kbits/s speed=0.983x    size=    8860kB time=00:23:05.85 bitrate=  52.4kbits/s speed=0.983x    size=    8879kB time=00:23:09.01 bitrate=  52.4kbits/s speed=0.983x    size=    8897kB time=00:23:11.67 bitrate=  52.4kbits/s speed=0.983x    size=    8916kB time=00:23:14.91 bitrate=  52.4kbits/s speed=0.983x    size=    8935kB time=00:23:18.02 bitrate=  52.4kbits/s speed=0.983x    size=    8954kB time=00:23:20.71 bitrate=  52.4kbits/s speed=0.983x    size=    8973kB time=00:23:23.90 bitrate=  52.4kbits/s speed=0.983x    size=    8992kB time=00:23:27.04 bitrate=  52.4kbits/s speed=0.983x    size=    9011kB time=00:23:30.23 bitrate=  52.3kbits/s speed=0.983x    size=    9030kB time=00:23:33.30 bitrate=  52.3kbits/s speed=0.983x    size=    9049kB time=00:23:36.08 bitrate=  52.3kbits/s speed=0.983x    size=    9068kB time=00:23:38.78 bitrate=  52.4kbits/s speed=0.983x    size=    9087kB time=00:23:41.72 bitrate=  52.4kbits/s speed=0.983x    size=    9106kB time=00:23:45.24 bitrate=  52.3kbits/s speed=0.983x    size=    9125kB time=00:23:48.67 bitrate=  52.3kbits/s speed=0.983x    size=    9144kB time=00:23:51.64 bitrate=  52.3kbits/s speed=0.983x    size=    9168kB time=00:23:53.71 bitrate=  52.4kbits/s speed=0.983x    size=    9186kB time=00:23:56.92 bitrate=  52.4kbits/s speed=0.983x    size=    9205kB time=00:23:59.54 bitrate=  52.4kbits/s speed=0.982x    [rtp @ 0x562e8317fbc0] Non-monotonic DTS in output stream 0:0; previous: 68972321, current: 68972293; changing to 68972321. This may result in incorrect timestamps in the output file.
size=    9220kB time=00:24:02.70 bitrate=  52.4kbits/s speed=0.982x    size=    9243kB time=00:24:05.90 bitrate=  52.4kbits/s speed=0.983x    size=    9262kB time=00:24:10.25 bitrate=  52.3kbits/s speed=0.983x    size=    9281kB time=00:24:13.49 bitrate=  52.3kbits/s speed=0.984x    size=    9305kB time=00:24:16.37 bitrate=  52.3kbits/s speed=0.984x    size=    9324kB time=00:24:19.65 bitrate=  52.3kbits/s speed=0.984x    size=    9343kB time=00:24:22.38 bitrate=  52.3kbits/s speed=0.984x    size=    9362kB time=00:24:25.53 bitrate=  52.3kbits/s speed=0.984x    size=    9381kB time=00:24:28.64 bitrate=  52.3kbits/s speed=0.984x    size=    9404kB time=00:24:31.68 bitrate=  52.3kbits/s speed=0.984x    size=    9423kB time=00:24:34.90 bitrate=  52.3kbits/s speed=0.984x    size=    9442kB time=00:24:37.10 bitrate=  52.4kbits/s speed=0.983x    size=    9461kB time=00:24:40.81 bitrate=  52.3kbits/s speed=0.984x    size=    9485kB time=00:24:44.01 bitrate=  52.4kbits/s speed=0.984x    size=    9504kB time=00:24:47.07 bitrate=  52.4kbits/s speed=0.984x    size=    9523kB time=00:24:49.95 bitrate=  52.4kbits/s speed=0.984x    size=    9542kB time=00:24:52.25 bitrate=  52.4kbits/s speed=0.983x    size=    9565kB time=00:24:56.19 bitrate=  52.4kbits/s speed=0.984x    size=    9584kB time=00:24:59.59 bitrate=  52.4kbits/s speed=0.984x    size=    9603kB time=00:25:02.15 bitrate=  52.4kbits/s speed=0.984x    size=    9622kB time=00:25:04.25 bitrate=  52.4kbits/s speed=0.983x    size=    9641kB time=00:25:08.40 bitrate=  52.4kbits/s speed=0.984x    size=    9665kB time=00:25:11.54 bitrate=  52.4kbits/s speed=0.984x    size=    9684kB time=00:25:15.04 bitrate=  52.4kbits/s speed=0.984x    size=    9703kB time=00:25:17.67 bitrate=  52.4kbits/s speed=0.984x    [rtp @ 0x562e8317fbc0] Non-monotonic DTS in output stream 0:0; previous: 72722319, current: 72722242; changing to 72722319. This may result in incorrect timestamps in the output file.
size=    9717kB time=00:25:20.75 bitrate=  52.3kbits/s speed=0.984x    size=    9741kB time=00:25:23.79 bitrate=  52.4kbits/s speed=0.984x    size=    9760kB time=00:25:27.02 bitrate=  52.4kbits/s speed=0.984x    size=    9779kB time=00:25:29.96 bitrate=  52.4kbits/s speed=0.984x    size=    9798kB time=00:25:33.16 bitrate=  52.4kbits/s speed=0.984x    size=    9821kB time=00:25:36.18 bitrate=  52.4kbits/s speed=0.984x    size=    9840kB time=00:25:39.41 bitrate=  52.4kbits/s speed=0.984x    size=    9859kB time=00:25:42.20 bitrate=  52.4kbits/s speed=0.984x    size=    9878kB time=00:25:45.10 bitrate=  52.4kbits/s speed=0.984x    size=    9897kB time=00:25:48.46 bitrate=  52.4kbits/s speed=0.984x    size=    9921kB time=00:25:51.54 bitrate=  52.4kbits/s speed=0.984x    size=    9940kB time=00:25:54.85 bitrate=  52.4kbits/s speed=0.985x    size=    9959kB time=00:25:57.50 bitrate=  52.4kbits/s speed=0.984x    size=    9978kB time=00:26:00.67 bitrate=  52.4kbits/s speed=0.985x    size=   10001kB time=00:26:02.76 bitrate=  52.4kbits/s speed=0.984x    size=   10020kB time=00:26:07.20 bitrate=  52.4kbits/s speed=0.985x    size=   10039kB time=00:26:08.75 bitrate=  52.4kbits/s speed=0.984x    size=   10058kB time=00:26:11.72 bitrate=  52.4kbits/s speed=0.984x    size=   10082kB time=00:26:16.06 bitrate=  52.4kbits/s speed=0.985x    size=   10101kB time=00:26:19.63 bitrate=  52.4kbits/s speed=0.985x    size=   10120kB time=00:26:22.12 bitrate=  52.4kbits/s speed=0.985x    [rtp @ 0x562e8317fbc0] Non-monotonic DTS in output stream 0:0; previous: 75822295, current: 75821003; changing to 75822295. This may result in incorrect timestamps in the output file.
size=   10139kB time=00:26:25.38 bitrate=  52.4kbits/s speed=0.985x    size=   10162kB time=00:26:28.42 bitrate=  52.4kbits/s speed=0.985x    size=   10181kB time=00:26:31.59 bitrate=  52.4kbits/s speed=0.985x    size=   10200kB time=00:26:34.49 bitrate=  52.4kbits/s speed=0.985x    size=   10219kB time=00:26:37.64 bitrate=  52.4kbits/s speed=0.985x    size=   10238kB time=00:26:40.26 bitrate=  52.4kbits/s speed=0.985x    size=   10262kB time=00:26:43.51 bitrate=  52.4kbits/s speed=0.985x    size=   10281kB time=00:26:47.19 bitrate=  52.4kbits/s speed=0.985x    size=   10300kB time=00:26:49.75 bitrate=  52.4kbits/s speed=0.985x    size=   10319kB time=00:26:52.91 bitrate=  52.4kbits/s speed=0.985x    size=   10342kB time=00:26:55.72 bitrate=  52.4kbits/s speed=0.985x    size=   10361kB time=00:26:59.41 bitrate=  52.4kbits/s speed=0.985x    size=   10380kB time=00:27:02.01 bitrate=  52.4kbits/s speed=0.985x    size=   10399kB time=00:27:04.79 bitrate=  52.4kbits/s speed=0.985x    size=   10418kB time=00:27:07.34 bitrate=  52.4kbits/s speed=0.985x    size=   10437kB time=00:27:10.79 bitrate=  52.4kbits/s speed=0.985x    size=   10456kB time=00:27:14.08 bitrate=  52.4kbits/s speed=0.985x    size=   10475kB time=00:27:17.03 bitrate=  52.4kbits/s speed=0.985x    size=   10494kB time=00:27:20.03 bitrate=  52.4kbits/s speed=0.985x    size=   10513kB time=00:27:23.61 bitrate=  52.4kbits/s speed=0.985x    size=   10532kB time=00:27:26.93 bitrate=  52.4kbits/s speed=0.985x    size=   10551kB time=00:27:29.88 bitrate=  52.4kbits/s speed=0.985x    size=   10570kB time=00:27:32.90 bitrate=  52.4kbits/s speed=0.985x    size=   10589kB time=00:27:36.08 bitrate=  52.4kbits/s speed=0.986x    size=   10608kB time=00:27:38.98 bitrate=  52.4kbits/s speed=0.985x    size=   10627kB time=00:27:42.00 bitrate=  52.4kbits/s speed=0.985x    size=   10646kB time=00:27:45.25 bitrate=  52.4kbits/s speed=0.986x    size=   10665kB time=00:27:47.81 bitrate=  52.4kbits/s speed=0.985x    size=   10684kB time=00:27:51.06 bitrate=  52.4kbits/s speed=0.985x    size=   10707kB time=00:27:54.23 bitrate=  52.4kbits/s speed=0.986x    size=   10726kB time=00:27:57.80 bitrate=  52.4kbits/s speed=0.986x    size=   10745kB time=00:28:00.38 bitrate=  52.4kbits/s speed=0.986x    size=   10764kB time=00:28:03.59 bitrate=  52.4kbits/s speed=0.986x    size=   10783kB time=00:28:05.81 bitrate=  52.4kbits/s speed=0.985x    size=   10802kB time=00:28:08.80 bitrate=  52.4kbits/s speed=0.985x    size=   10826kB time=00:28:12.84 bitrate=  52.4kbits/s speed=0.986x    size=   10845kB time=00:28:15.92 bitrate=  52.4kbits/s speed=0.986x    size=   10864kB time=00:28:18.33 bitrate=  52.4kbits/s speed=0.985x    size=   10883kB time=00:28:21.50 bitrate=  52.4kbits/s speed=0.986x    size=   10902kB time=00:28:25.08 bitrate=  52.4kbits/s speed=0.986x    size=   10920kB time=00:28:26.84 bitrate=  52.4kbits/s speed=0.985x    size=   10939kB time=00:28:31.43 bitrate=  52.4kbits/s speed=0.986x    size=   10958kB time=00:28:34.48 bitrate=  52.4kbits/s speed=0.986x    size=   10982kB time=00:28:37.40 bitrate=  52.4kbits/s speed=0.986x    size=   11001kB time=00:28:40.81 bitrate=  52.4kbits/s speed=0.986x    size=   11020kB time=00:28:43.46 bitrate=  52.4kbits/s speed=0.986x    size=   11039kB time=00:28:46.67 bitrate=  52.4kbits/s speed=0.986x    size=   11058kB time=00:28:49.59 bitrate=  52.4kbits/s speed=0.986x    size=   11082kB time=00:28:52.82 bitrate=  52.4kbits/s speed=0.986x    size=   11100kB time=00:28:55.77 bitrate=  52.4kbits/s speed=0.986x    size=   11119kB time=00:28:58.81 bitrate=  52.4kbits/s speed=0.986x    size=   11138kB time=00:29:01.72 bitrate=  52.4kbits/s speed=0.986x    size=   11157kB time=00:29:04.75 bitrate=  52.4kbits/s speed=0.986x    size=   11181kB time=00:29:07.83 bitrate=  52.4kbits/s speed=0.986x    size=   11200kB time=00:29:11.30 bitrate=  52.4kbits/s speed=0.986x    size=   11219kB time=00:29:14.14 bitrate=  52.4kbits/s speed=0.986x    size=   11238kB time=00:29:16.89 bitrate=  52.4kbits/s speed=0.986x    size=   11257kB time=00:29:20.39 bitrate=  52.4kbits/s speed=0.986x    size=   11276kB time=00:29:23.43 bitrate=  52.4kbits/s speed=0.986x    size=   11295kB time=00:29:26.43 bitrate=  52.4kbits/s speed=0.986x    size=   11314kB time=00:29:28.35 bitrate=  52.4kbits/s speed=0.986x    size=   11333kB time=00:29:32.04 bitrate=  52.4kbits/s speed=0.986x    size=   11352kB time=00:29:36.09 bitrate=  52.4kbits/s speed=0.987x    size=   11371kB time=00:29:38.99 bitrate=  52.4kbits/s speed=0.987x    size=   11390kB time=00:29:41.93 bitrate=  52.4kbits/s speed=0.986x    size=   11408kB time=00:29:44.86 bitrate=  52.4kbits/s speed=0.986x    size=   11427kB time=00:29:47.86 bitrate=  52.4kbits/s speed=0.986x    size=   11446kB time=00:29:50.83 bitrate=  52.4kbits/s speed=0.986x    size=   11470kB time=00:29:54.22 bitrate=  52.4kbits/s speed=0.987x    size=   11489kB time=00:29:57.62 bitrate=  52.4kbits/s speed=0.987x    size=   11508kB time=00:30:00.00 bitrate=  52.4kbits/s speed=0.986x    size=   11527kB time=00:30:03.44 bitrate=  52.4kbits/s speed=0.987x    size=   11546kB time=00:30:06.25 bitrate=  52.4kbits/s speed=0.987x    size=   11565kB time=00:30:09.28 bitrate=  52.4kbits/s speed=0.987x    size=   11584kB time=00:30:12.32 bitrate=  52.4kbits/s speed=0.987x    size=   11603kB time=00:30:14.90 bitrate=  52.4kbits/s speed=0.986x    size=   11622kB time=00:30:17.87 bitrate=  52.4kbits/s speed=0.986x    size=   11641kB time=00:30:21.33 bitrate=  52.4kbits/s speed=0.986x    size=   11660kB time=00:30:23.99 bitrate=  52.4kbits/s speed=0.986x    size=   11678kB time=00:30:26.76 bitrate=  52.4kbits/s speed=0.986x    size=   11697kB time=00:30:29.84 bitrate=  52.4kbits/s speed=0.986x    size=   11716kB time=00:30:34.03 bitrate=  52.3kbits/s speed=0.987x    size=   11735kB time=00:30:36.74 bitrate=  52.3kbits/s speed=0.987x    size=   11754kB time=00:30:40.49 bitrate=  52.3kbits/s speed=0.987x    size=   11773kB time=00:30:43.49 bitrate=  52.3kbits/s speed=0.987x    size=   11792kB time=00:30:46.44 bitrate=  52.3kbits/s speed=0.987x    size=   11811kB time=00:30:49.57 bitrate=  52.3kbits/s speed=0.987x    size=   11830kB time=00:30:52.67 bitrate=  52.3kbits/s speed=0.987x    size=   11849kB time=00:30:55.57 bitrate=  52.3kbits/s speed=0.987x    size=   11868kB time=00:30:58.60 bitrate=  52.3kbits/s speed=0.987x    size=   11887kB time=00:31:01.85 bitrate=  52.3kbits/s speed=0.987x    size=   11906kB time=00:31:04.70 bitrate=  52.3kbits/s speed=0.987x    size=   11925kB time=00:31:07.95 bitrate=  52.3kbits/s speed=0.987x    size=   11944kB time=00:31:11.01 bitrate=  52.3kbits/s speed=0.987x    size=   11963kB time=00:31:13.79 bitrate=  52.3kbits/s speed=0.987x    size=   11982kB time=00:31:16.81 bitrate=  52.3kbits/s speed=0.987x    size=   12001kB time=00:31:19.89 bitrate=  52.3kbits/s speed=0.987x    size=   12020kB time=00:31:22.94 bitrate=  52.3kbits/s speed=0.987x    size=   12039kB time=00:31:25.95 bitrate=  52.3kbits/s speed=0.987x    size=   12058kB time=00:31:28.45 bitrate=  52.3kbits/s speed=0.987x    size=   12076kB time=00:31:32.31 bitrate=  52.3kbits/s speed=0.987x    size=   12095kB time=00:31:35.12 bitrate=  52.3kbits/s speed=0.987x    size=   12114kB time=00:31:38.09 bitrate=  52.3kbits/s speed=0.987x    size=   12133kB time=00:31:40.46 bitrate=  52.3kbits/s speed=0.987x    size=   12152kB time=00:31:45.00 bitrate=  52.3kbits/s speed=0.987x    size=   12171kB time=00:31:48.04 bitrate=  52.3kbits/s speed=0.987x    size=   12190kB time=00:31:51.02 bitrate=  52.3kbits/s speed=0.987x    size=   12209kB time=00:31:54.11 bitrate=  52.3kbits/s speed=0.987x    size=   12228kB time=00:31:57.05 bitrate=  52.3kbits/s speed=0.987x    size=   12247kB time=00:32:00.20 bitrate=  52.2kbits/s speed=0.987x    size=   12266kB time=00:32:03.29 bitrate=  52.2kbits/s speed=0.987x    size=   12285kB time=00:32:06.14 bitrate=  52.2kbits/s speed=0.987x    size=   12304kB time=00:32:09.20 bitrate=  52.2kbits/s speed=0.987x    size=   12328kB time=00:32:11.95 bitrate=  52.3kbits/s speed=0.987x    size=   12347kB time=00:32:15.42 bitrate=  52.3kbits/s speed=0.987x    size=   12365kB time=00:32:17.86 bitrate=  52.3kbits/s speed=0.987x    size=   12384kB time=00:32:21.36 bitrate=  52.3kbits/s speed=0.987x    size=   12403kB time=00:32:23.97 bitrate=  52.3kbits/s speed=0.987x    size=   12422kB time=00:32:27.31 bitrate=  52.3kbits/s speed=0.987x    size=   12441kB time=00:32:30.95 bitrate=  52.2kbits/s speed=0.988x    size=   12465kB time=00:32:33.48 bitrate=  52.3kbits/s speed=0.987x    size=   12484kB time=00:32:37.34 bitrate=  52.2kbits/s speed=0.988x    size=   12503kB time=00:32:38.80 bitrate=  52.3kbits/s speed=0.987x    size=   12522kB time=00:32:43.05 bitrate=  52.3kbits/s speed=0.988x    size=   12541kB time=00:32:45.70 bitrate=  52.3kbits/s speed=0.987x    size=   12560kB time=00:32:49.51 bitrate=  52.2kbits/s speed=0.988x    size=   12579kB time=00:32:52.44 bitrate=  52.2kbits/s speed=0.988x    size=   12598kB time=00:32:55.39 bitrate=  52.2kbits/s speed=0.988x    size=   12617kB time=00:32:58.46 bitrate=  52.2kbits/s speed=0.988x    size=   12636kB time=00:33:01.64 bitrate=  52.2kbits/s speed=0.988x    size=   12654kB time=00:33:04.62 bitrate=  52.2kbits/s speed=0.988x    size=   12673kB time=00:33:07.66 bitrate=  52.2kbits/s speed=0.988x    size=   12692kB time=00:33:10.87 bitrate=  52.2kbits/s speed=0.988x    size=   12711kB time=00:33:13.93 bitrate=  52.2kbits/s speed=0.988x    size=   12730kB time=00:33:16.46 bitrate=  52.2kbits/s speed=0.988x    size=   12754kB time=00:33:19.70 bitrate=  52.2kbits/s speed=0.988x    size=   12773kB time=00:33:23.28 bitrate=  52.2kbits/s speed=0.988x    size=   12792kB time=00:33:26.07 bitrate=  52.2kbits/s speed=0.988x    size=   12811kB time=00:33:28.85 bitrate=  52.2kbits/s speed=0.988x    size=   12830kB time=00:33:32.32 bitrate=  52.2kbits/s speed=0.988x    size=   12849kB time=00:33:34.99 bitrate=  52.2kbits/s speed=0.988x    size=   12868kB time=00:33:38.42 bitrate=  52.2kbits/s speed=0.988x    size=   12887kB time=00:33:41.04 bitrate=  52.2kbits/s speed=0.988x    size=   12906kB time=00:33:44.53 bitrate=  52.2kbits/s speed=0.988x    size=   12925kB time=00:33:47.61 bitrate=  52.2kbits/s speed=0.988x    size=   12943kB time=00:33:50.62 bitrate=  52.2kbits/s speed=0.988x    size=   12962kB time=00:33:54.02 bitrate=  52.2kbits/s speed=0.988x    size=   12981kB time=00:33:57.00 bitrate=  52.2kbits/s speed=0.988x    size=   13000kB time=00:34:00.08 bitrate=  52.2kbits/s speed=0.988x    size=   13019kB time=00:34:03.13 bitrate=  52.2kbits/s speed=0.988x    size=   13038kB time=00:34:05.96 bitrate=  52.2kbits/s speed=0.988x    size=   13057kB time=00:34:09.11 bitrate=  52.2kbits/s speed=0.988x    size=   13076kB time=00:34:12.18 bitrate=  52.2kbits/s speed=0.988x    size=   13095kB time=00:34:15.22 bitrate=  52.2kbits/s speed=0.988x    size=   13114kB time=00:34:17.94 bitrate=  52.2kbits/s speed=0.988x    size=   13133kB time=00:34:20.96 bitrate=  52.2kbits/s speed=0.988x    size=   13152kB time=00:34:24.27 bitrate=  52.2kbits/s speed=0.988x    size=   13171kB time=00:34:27.41 bitrate=  52.2kbits/s speed=0.988x    size=   13190kB time=00:34:30.41 bitrate=  52.2kbits/s speed=0.988x    size=   13209kB time=00:34:33.74 bitrate=  52.2kbits/s speed=0.988x    size=   13228kB time=00:34:36.81 bitrate=  52.2kbits/s speed=0.988x    size=   13247kB time=00:34:39.46 bitrate=  52.2kbits/s speed=0.988x    size=   13266kB time=00:34:41.98 bitrate=  52.2kbits/s speed=0.988x    size=   13285kB time=00:34:45.99 bitrate=  52.2kbits/s speed=0.988x    size=   13304kB time=00:34:48.65 bitrate=  52.2kbits/s speed=0.988x    size=   13322kB time=00:34:51.64 bitrate=  52.2kbits/s speed=0.988x    size=   13341kB time=00:34:54.73 bitrate=  52.2kbits/s speed=0.988x    size=   13360kB time=00:34:58.28 bitrate=  52.2kbits/s speed=0.988x    size=   13379kB time=00:35:01.61 bitrate=  52.2kbits/s speed=0.989x    size=   13403kB time=00:35:04.58 bitrate=  52.2kbits/s speed=0.989x    size=   13422kB time=00:35:07.85 bitrate=  52.2kbits/s speed=0.989x    size=   13441kB time=00:35:10.58 bitrate=  52.2kbits/s speed=0.989x    size=   13460kB time=00:35:13.61 bitrate=  52.2kbits/s speed=0.989x    size=   13479kB time=00:35:16.84 bitrate=  52.2kbits/s speed=0.989x    size=   13498kB time=00:35:19.48 bitrate=  52.2kbits/s speed=0.988x    size=   13517kB time=00:35:22.40 bitrate=  52.2kbits/s speed=0.988x    size=   13536kB time=00:35:26.05 bitrate=  52.2kbits/s speed=0.989x    size=   13555kB time=00:35:28.51 bitrate=  52.2kbits/s speed=0.988x    size=   13574kB time=00:35:32.04 bitrate=  52.2kbits/s speed=0.989x    size=   13593kB time=00:35:34.94 bitrate=  52.2kbits/s speed=0.989x    size=   13612kB time=00:35:38.28 bitrate=  52.1kbits/s speed=0.989x    size=   13630kB time=00:35:40.95 bitrate=  52.2kbits/s speed=0.989x    size=   13649kB time=00:35:44.39 bitrate=  52.1kbits/s speed=0.989x    size=   13668kB time=00:35:47.05 bitrate=  52.2kbits/s speed=0.989x    size=   13692kB time=00:35:50.08 bitrate=  52.2kbits/s speed=0.989x    size=   13711kB time=00:35:53.68 bitrate=  52.2kbits/s speed=0.989x    size=   13730kB time=00:35:56.05 bitrate=  52.2kbits/s speed=0.988x    size=   13749kB time=00:35:59.70 bitrate=  52.2kbits/s speed=0.989x    size=   13768kB time=00:36:02.22 bitrate=  52.2kbits/s speed=0.989x    size=   13787kB time=00:36:06.16 bitrate=  52.1kbits/s speed=0.989x    size=   13806kB time=00:36:09.14 bitrate=  52.1kbits/s speed=0.989x    size=   13825kB time=00:36:12.07 bitrate=  52.1kbits/s speed=0.989x    size=   13844kB time=00:36:15.22 bitrate=  52.1kbits/s speed=0.989x    size=   13863kB time=00:36:18.26 bitrate=  52.1kbits/s speed=0.989x    size=   13882kB time=00:36:21.33 bitrate=  52.1kbits/s speed=0.989x    size=   13900kB time=00:36:24.39 bitrate=  52.1kbits/s speed=0.989x    size=   13919kB time=00:36:27.46 bitrate=  52.1kbits/s speed=0.989x    size=   13938kB time=00:36:29.97 bitrate=  52.1kbits/s speed=0.989x    size=   13957kB time=00:36:33.01 bitrate=  52.1kbits/s speed=0.989x    size=   13976kB time=00:36:36.41 bitrate=  52.1kbits/s speed=0.989x    size=   14000kB time=00:36:39.73 bitrate=  52.1kbits/s speed=0.989x    size=   14019kB time=00:36:42.56 bitrate=  52.1kbits/s speed=0.989x    size=   14038kB time=00:36:45.72 bitrate=  52.1kbits/s speed=0.989x    size=   14057kB time=00:36:48.51 bitrate=  52.1kbits/s speed=0.989x    size=   14076kB time=00:36:51.58 bitrate=  52.1kbits/s speed=0.989x    size=   14095kB time=00:36:55.06 bitrate=  52.1kbits/s speed=0.989x    size=   14118kB time=00:36:57.04 bitrate=  52.2kbits/s speed=0.989x    size=   14137kB time=00:37:00.12 bitrate=  52.2kbits/s speed=0.989x    size=   14156kB time=00:37:04.19 bitrate=  52.1kbits/s speed=0.989x    size=   14175kB time=00:37:07.29 bitrate=  52.1kbits/s speed=0.989x    size=   14194kB time=00:37:10.61 bitrate=  52.1kbits/s speed=0.989x    size=   14213kB time=00:37:13.57 bitrate=  52.1kbits/s speed=0.989x    size=   14232kB time=00:37:16.59 bitrate=  52.1kbits/s speed=0.989x    size=   14256kB time=00:37:19.52 bitrate=  52.1kbits/s speed=0.989x    size=   14275kB time=00:37:23.06 bitrate=  52.1kbits/s speed=0.989x    size=   14294kB time=00:37:25.60 bitrate=  52.1kbits/s speed=0.989x    size=   14313kB time=00:37:28.91 bitrate=  52.1kbits/s speed=0.989x    size=   14332kB time=00:37:31.79 bitrate=  52.1kbits/s speed=0.989x    size=   14351kB time=00:37:34.82 bitrate=  52.1kbits/s speed=0.989x    size=   14370kB time=00:37:37.87 bitrate=  52.1kbits/s speed=0.989x    size=   14388kB time=00:37:41.17 bitrate=  52.1kbits/s speed=0.989x    size=   14412kB time=00:37:44.24 bitrate=  52.1kbits/s speed=0.989x    size=   14431kB time=00:37:47.36 bitrate=  52.1kbits/s speed=0.989x    size=   14450kB time=00:37:49.41 bitrate=  52.2kbits/s speed=0.989x    size=   14469kB time=00:37:53.03 bitrate=  52.1kbits/s speed=0.989x    size=   14488kB time=00:37:56.13 bitrate=  52.1kbits/s speed=0.989x    size=   14507kB time=00:37:59.56 bitrate=  52.1kbits/s speed=0.989x    size=   14526kB time=00:38:02.59 bitrate=  52.1kbits/s speed=0.989x    size=   14545kB time=00:38:05.63 bitrate=  52.1kbits/s speed=0.989x    size=   14564kB time=00:38:07.51 bitrate=  52.2kbits/s speed=0.989x    size=   14587kB time=00:38:11.77 bitrate=  52.1kbits/s speed=0.989x    size=   14606kB time=00:38:15.37 bitrate=  52.1kbits/s speed=0.99x    size=   14625kB time=00:38:18.00 bitrate=  52.1kbits/s speed=0.989x    [rtp @ 0x562e8317fbc0] Non-monotonic DTS in output stream 0:0; previous: 110178091, current: 110177193; changing to 110178091. This may result in incorrect timestamps in the output file.
size=   14644kB time=00:38:21.12 bitrate=  52.1kbits/s speed=0.989x    size=   14668kB time=00:38:24.13 bitrate=  52.1kbits/s speed=0.989x    size=   14687kB time=00:38:27.37 bitrate=  52.1kbits/s speed=0.99x    size=   14706kB time=00:38:29.96 bitrate=  52.2kbits/s speed=0.989x    size=   14725kB time=00:38:32.96 bitrate=  52.2kbits/s speed=0.989x    size=   14744kB time=00:38:36.01 bitrate=  52.2kbits/s speed=0.989x    size=   14763kB time=00:38:39.39 bitrate=  52.1kbits/s speed=0.99x    size=   14786kB time=00:38:42.05 bitrate=  52.2kbits/s speed=0.989x    size=   14805kB time=00:38:45.86 bitrate=  52.1kbits/s speed=0.99x    size=   14824kB time=00:38:48.36 bitrate=  52.2kbits/s speed=0.989x    size=   14843kB time=00:38:51.01 bitrate=  52.2kbits/s speed=0.989x    size=   14867kB time=00:38:54.05 bitrate=  52.2kbits/s speed=0.989x    size=   14886kB time=00:38:58.09 bitrate=  52.2kbits/s speed=0.99x    size=   14905kB time=00:38:59.99 bitrate=  52.2kbits/s speed=0.989x    size=   14924kB time=00:39:02.90 bitrate=  52.2kbits/s speed=0.989x    size=   14943kB time=00:39:07.10 bitrate=  52.2kbits/s speed=0.99x    size=   14962kB time=00:39:10.27 bitrate=  52.1kbits/s speed=0.99x    size=   14985kB time=00:39:12.69 bitrate=  52.2kbits/s speed=0.989x    size=   15004kB time=00:39:16.38 bitrate=  52.2kbits/s speed=0.99x    size=   15023kB time=00:39:19.58 bitrate=  52.2kbits/s speed=0.99x    size=   15042kB time=00:39:22.65 bitrate=  52.2kbits/s speed=0.99x    size=   15061kB time=00:39:25.68 bitrate=  52.2kbits/s speed=0.99x    size=   15080kB time=00:39:28.77 bitrate=  52.2kbits/s speed=0.99x    size=   15099kB time=00:39:31.81 bitrate=  52.2kbits/s speed=0.99x    size=   15118kB time=00:39:34.88 bitrate=  52.1kbits/s speed=0.99x    size=   15137kB time=00:39:37.94 bitrate=  52.1kbits/s speed=0.99x    size=   15161kB time=00:39:40.56 bitrate=  52.2kbits/s speed=0.99x    size=   15180kB time=00:39:44.22 bitrate=  52.2kbits/s speed=0.99x    size=   15199kB time=00:39:46.49 bitrate=  52.2kbits/s speed=0.99x    size=   15218kB time=00:39:49.84 bitrate=  52.2kbits/s speed=0.99x    size=   15237kB time=00:39:53.03 bitrate=  52.2kbits/s speed=0.99x    size=   15255kB time=00:39:56.35 bitrate=  52.2kbits/s speed=0.99x    size=   15274kB time=00:39:59.37 bitrate=  52.2kbits/s speed=0.99x    size=   15293kB time=00:40:02.06 bitrate=  52.2kbits/s speed=0.99x    size=   15312kB time=00:40:05.51 bitrate=  52.1kbits/s speed=0.99x    size=   15331kB time=00:40:08.14 bitrate=  52.2kbits/s speed=0.99x    size=   15350kB time=00:40:11.18 bitrate=  52.2kbits/s speed=0.99x    size=   15369kB time=00:40:14.25 bitrate=  52.2kbits/s speed=0.99x    size=   15388kB time=00:40:17.78 bitrate=  52.1kbits/s speed=0.99x    size=   15407kB time=00:40:19.58 bitrate=  52.2kbits/s speed=0.989x    size=   15426kB time=00:40:24.17 bitrate=  52.1kbits/s speed=0.99x    size=   15450kB time=00:40:27.20 bitrate=  52.1kbits/s speed=0.99x    size=   15469kB time=00:40:30.36 bitrate=  52.1kbits/s speed=0.99x    size=   15488kB time=00:40:33.15 bitrate=  52.1kbits/s speed=0.99x    size=   15507kB time=00:40:36.19 bitrate=  52.1kbits/s speed=0.99x    size=   15530kB time=00:40:39.40 bitrate=  52.2kbits/s speed=0.99x    size=   15549kB time=00:40:42.71 bitrate=  52.1kbits/s speed=0.99x    size=   15568kB time=00:40:44.91 bitrate=  52.2kbits/s speed=0.99x    size=   15587kB time=00:40:48.28 bitrate=  52.2kbits/s speed=0.99x    size=   15606kB time=00:40:51.73 bitrate=  52.1kbits/s speed=0.99x    size=   15625kB time=00:40:54.43 bitrate=  52.2kbits/s speed=0.99x    size=   15644kB time=00:40:57.45 bitrate=  52.1kbits/s speed=0.99x    size=   15663kB time=00:41:00.54 bitrate=  52.1kbits/s speed=0.99x    size=   15682kB time=00:41:03.58 bitrate=  52.1kbits/s speed=0.99x    size=   15701kB time=00:41:06.09 bitrate=  52.2kbits/s speed=0.99x    size=   15720kB time=00:41:10.01 bitrate=  52.1kbits/s speed=0.99x    size=   15739kB time=00:41:12.72 bitrate=  52.1kbits/s speed=0.99x    size=   15758kB time=00:41:15.69 bitrate=  52.1kbits/s speed=0.99x    size=   15777kB time=00:41:18.15 bitrate=  52.2kbits/s speed=0.99x    size=   15796kB time=00:41:21.66 bitrate=  52.1kbits/s speed=0.99x    size=   15815kB time=00:41:24.22 bitrate=  52.2kbits/s speed=0.99x    size=   15833kB time=00:41:28.71 bitrate=  52.1kbits/s speed=0.99x    size=   15852kB time=00:41:31.72 bitrate=  52.1kbits/s speed=0.99x    size=   15871kB time=00:41:34.65 bitrate=  52.1kbits/s speed=0.99x    size=   15890kB time=00:41:37.70 bitrate=  52.1kbits/s speed=0.99x    size=   15909kB time=00:41:40.76 bitrate=  52.1kbits/s speed=0.99x    size=   15928kB time=00:41:43.78 bitrate=  52.1kbits/s speed=0.99x    size=   15947kB time=00:41:46.95 bitrate=  52.1kbits/s speed=0.99x    size=   15966kB time=00:41:50.03 bitrate=  52.1kbits/s speed=0.99x    size=   15985kB time=00:41:53.07 bitrate=  52.1kbits/s speed=0.99x    size=   16009kB time=00:41:55.60 bitrate=  52.1kbits/s speed=0.99x    size=   16028kB time=00:41:59.52 bitrate=  52.1kbits/s speed=0.991x    size=   16047kB time=00:42:02.16 bitrate=  52.1kbits/s speed=0.99x    size=   16066kB time=00:42:05.30 bitrate=  52.1kbits/s speed=0.99x    size=   16089kB time=00:42:08.07 bitrate=  52.1kbits/s speed=0.99x    size=   16108kB time=00:42:10.77 bitrate=  52.1kbits/s speed=0.99x    size=   16127kB time=00:42:14.30 bitrate=  52.1kbits/s speed=0.99x    [rtp @ 0x562e8317fbc0] Non-monotonic DTS in output stream 0:0; previous: 121477021, current: 121476248; changing to 121477021. This may result in incorrect timestamps in the output file.
size=   16146kB time=00:42:17.66 bitrate=  52.1kbits/s speed=0.99x    size=   16165kB time=00:42:19.63 bitrate=  52.1kbits/s speed=0.99x    size=   16189kB time=00:42:23.68 bitrate=  52.1kbits/s speed=0.99x    size=   16208kB time=00:42:26.85 bitrate=  52.1kbits/s speed=0.99x    size=   16227kB time=00:42:29.74 bitrate=  52.1kbits/s speed=0.99x    size=   16246kB time=00:42:33.18 bitrate=  52.1kbits/s speed=0.991x    size=   16269kB time=00:42:36.22 bitrate=  52.1kbits/s speed=0.991x    size=   16288kB time=00:42:39.42 bitrate=  52.1kbits/s speed=0.991x    size=   16307kB time=00:42:42.07 bitrate=  52.1kbits/s speed=0.99x    size=   16326kB time=00:42:45.36 bitrate=  52.1kbits/s speed=0.991x    size=   16345kB time=00:42:48.29 bitrate=  52.1kbits/s speed=0.991x    size=   16364kB time=00:42:51.33 bitrate=  52.1kbits/s speed=0.991x    size=   16383kB time=00:42:54.14 bitrate=  52.1kbits/s speed=0.99x    size=   16402kB time=00:42:57.63 bitrate=  52.1kbits/s speed=0.991x    size=   16421kB time=00:43:00.45 bitrate=  52.1kbits/s speed=0.991x    size=   16440kB time=00:43:03.71 bitrate=  52.1kbits/s speed=0.991x    size=   16464kB time=00:43:06.54 bitrate=  52.1kbits/s speed=0.991x    size=   16483kB time=00:43:09.25 bitrate=  52.1kbits/s speed=0.99x    size=   16502kB time=00:43:11.94 bitrate=  52.2kbits/s speed=0.99x    [rtp @ 0x562e8317fbc0] Non-monotonic DTS in output stream 0:0; previous: 124284250, current: 124283758; changing to 124284250. This may result in incorrect timestamps in the output file.
size=   16520kB time=00:43:15.94 bitrate=  52.1kbits/s speed=0.991x    size=   16539kB time=00:43:19.13 bitrate=  52.1kbits/s speed=0.991x    size=   16558kB time=00:43:21.67 bitrate=  52.1kbits/s speed=0.991x    size=   16577kB time=00:43:24.17 bitrate=  52.1kbits/s speed=0.99x    size=   16601kB time=00:43:27.13 bitrate=  52.2kbits/s speed=0.99x    size=   16620kB time=00:43:31.41 bitrate=  52.1kbits/s speed=0.991x    size=   16639kB time=00:43:34.33 bitrate=  52.1kbits/s speed=0.991x    size=   16658kB time=00:43:36.82 bitrate=  52.1kbits/s speed=0.99x    size=   16682kB time=00:43:40.81 bitrate=  52.1kbits/s speed=0.991x    size=   16700kB time=00:43:43.98 bitrate=  52.1kbits/s speed=0.991x    size=   16719kB time=00:43:46.47 bitrate=  52.1kbits/s speed=0.991x    size=   16738kB time=00:43:49.83 bitrate=  52.1kbits/s speed=0.991x    size=   16757kB time=00:43:52.69 bitrate=  52.1kbits/s speed=0.991x    size=   16776kB time=00:43:55.96 bitrate=  52.1kbits/s speed=0.991x    size=   16795kB time=00:43:58.91 bitrate=  52.1kbits/s speed=0.991x    size=   16814kB time=00:44:01.93 bitrate=  52.1kbits/s speed=0.991x    size=   16833kB time=00:44:04.95 bitrate=  52.1kbits/s speed=0.991x    size=   16857kB time=00:44:08.27 bitrate=  52.1kbits/s speed=0.991x    size=   16876kB time=00:44:10.79 bitrate=  52.2kbits/s speed=0.991x    size=   16895kB time=00:44:13.56 bitrate=  52.2kbits/s speed=0.991x    size=   16914kB time=00:44:16.70 bitrate=  52.2kbits/s speed=0.991x    size=   16937kB time=00:44:19.62 bitrate=  52.2kbits/s speed=0.991x    size=   16956kB time=00:44:23.97 bitrate=  52.1kbits/s speed=0.991x    size=   16975kB time=00:44:26.50 bitrate=  52.2kbits/s speed=0.991x    size=   16994kB time=00:44:28.62 bitrate=  52.2kbits/s speed=0.991x    size=   17013kB time=00:44:31.68 bitrate=  52.2kbits/s speed=0.991x    size=   17032kB time=00:44:34.73 bitrate=  52.2kbits/s speed=0.991x    size=   17056kB time=00:44:37.73 bitrate=  52.2kbits/s speed=0.991x    size=   17075kB time=00:44:42.42 bitrate=  52.1kbits/s speed=0.991x    size=   17094kB time=00:44:45.17 bitrate=  52.1kbits/s speed=0.991x    size=   17113kB time=00:44:48.22 bitrate=  52.1kbits/s speed=0.991x    size=   17132kB time=00:44:51.34 bitrate=  52.1kbits/s speed=0.991x    size=   17151kB time=00:44:54.37 bitrate=  52.1kbits/s speed=0.991x    size=   17170kB time=00:44:57.32 bitrate=  52.1kbits/s speed=0.991x    size=   17188kB time=00:45:00.38 bitrate=  52.1kbits/s speed=0.991x    size=   17207kB time=00:45:03.41 bitrate=  52.1kbits/s speed=0.992x    [rtp @ 0x562e8317fbc0] Non-monotonic DTS in output stream 0:0; previous: 129841378, current: 129839923; changing to 129841378. This may result in incorrect timestamps in the output file.
[rtp @ 0x562e8317fbc0] Non-monotonic DTS in output stream 0:0; previous: 129841378, current: 129838388; changing to 129841378. This may result in incorrect timestamps in the output file.
[rtp @ 0x562e8317fbc0] Non-monotonic DTS in output stream 0:0; previous: 129841378, current: 129837594; changing to 129841378. This may result in incorrect timestamps in the output file.
[rtp @ 0x562e8317fbc0] Non-monotonic DTS in output stream 0:0; previous: 129841378, current: 129837820; changing to 129841378. This may result in incorrect timestamps in the output file.
[rtp @ 0x562e8317fbc0] Non-monotonic DTS in output stream 0:0; previous: 129841378, current: 129839003; changing to 129841378. This may result in incorrect timestamps in the output file.
[rtp @ 0x562e8317fbc0] Non-monotonic DTS in output stream 0:0; previous: 129841378, current: 129840924; changing to 129841378. This may result in incorrect timestamps in the output file.
size=   19352kB time=00:45:26.84 bitrate=  58.1kbits/s speed=   1x    size=   19399kB time=00:45:27.33 bitrate=  58.3kbits/s speed=   1x    size=   19452kB time=00:45:27.88 bitrate=  58.4kbits/s speed=   1x    size=   19499kB time=00:45:28.37 bitrate=  58.5kbits/s speed=   1x    size=   19546kB time=00:45:28.87 bitrate=  58.7kbits/s speed=   1x    size=   19575kB time=00:45:29.37 bitrate=  58.8kbits/s speed=   1x    size=   19594kB time=00:45:29.62 bitrate=  58.8kbits/s speed=0.999x    size=   19613kB time=00:45:29.84 bitrate=  58.9kbits/s speed=0.998x    size=   19631kB time=00:45:30.04 bitrate=  58.9kbits/s speed=0.997x    size=   19650kB time=00:45:30.26 bitrate=  59.0kbits/s speed=0.996x    size=   19669kB time=00:45:30.43 bitrate=  59.0kbits/s speed=0.995x    size=   19688kB time=00:45:30.64 bitrate=  59.1kbits/s speed=0.994x    size=   19707kB time=00:45:30.86 bitrate=  59.1kbits/s speed=0.993x    size=   19726kB time=00:45:31.04 bitrate=  59.2kbits/s speed=0.992x    size=   19745kB time=00:45:31.70 bitrate=  59.2kbits/s speed=0.991x    size=   19769kB time=00:45:35.00 bitrate=  59.2kbits/s speed=0.991x    size=   19788kB time=00:45:38.43 bitrate=  59.2kbits/s speed=0.991x    size=   19807kB time=00:45:41.22 bitrate=  59.2kbits/s speed=0.991x    size=   19826kB time=00:45:44.08 bitrate=  59.2kbits/s speed=0.991x    size=   19849kB time=00:45:47.49 bitrate=  59.2kbits/s speed=0.991x    size=   19868kB time=00:45:50.82 bitrate=  59.2kbits/s speed=0.991x    size=   19887kB time=00:45:53.41 bitrate=  59.2kbits/s speed=0.991x    size=   19906kB time=00:45:56.22 bitrate=  59.2kbits/s speed=0.991x    size=   19925kB time=00:45:59.70 bitrate=  59.1kbits/s speed=0.991x    size=   19944kB time=00:46:02.33 bitrate=  59.1kbits/s speed=0.991x    size=   19968kB time=00:46:05.83 bitrate=  59.1kbits/s speed=0.991x    size=   19987kB time=00:46:09.26 bitrate=  59.1kbits/s speed=0.991x    size=   20006kB time=00:46:10.53 bitrate=  59.2kbits/s speed=0.991x    size=   20025kB time=00:46:15.12 bitrate=  59.1kbits/s speed=0.991x    size=   20044kB time=00:46:18.47 bitrate=  59.1kbits/s speed=0.991x    size=   20063kB time=00:46:21.29 bitrate=  59.1kbits/s speed=0.991x    size=   20082kB time=00:46:24.32 bitrate=  59.1kbits/s speed=0.991x    size=   20101kB time=00:46:27.18 bitrate=  59.1kbits/s speed=0.991x    size=   20119kB time=00:46:30.54 bitrate=  59.1kbits/s speed=0.991x    size=   20138kB time=00:46:33.60 bitrate=  59.1kbits/s speed=0.991x    size=   20157kB time=00:46:36.22 bitrate=  59.1kbits/s speed=0.991x    size=   20181kB time=00:46:39.22 bitrate=  59.1kbits/s speed=0.991x    size=   20200kB time=00:46:42.71 bitrate=  59.0kbits/s speed=0.991x    size=   20219kB time=00:46:45.17 bitrate=  59.0kbits/s speed=0.991x    size=   20238kB time=00:46:48.53 bitrate=  59.0kbits/s speed=0.991x    size=   20257kB time=00:46:52.06 bitrate=  59.0kbits/s speed=0.991x    size=   20276kB time=00:46:55.04 bitrate=  59.0kbits/s speed=0.991x    size=   20299kB time=00:46:58.08 bitrate=  59.0kbits/s speed=0.991x    size=   20318kB time=00:47:00.30 bitrate=  59.0kbits/s speed=0.991x    size=   20337kB time=00:47:03.02 bitrate=  59.0kbits/s speed=0.991x    [rtp @ 0x562e8317fbc0] Non-monotonic DTS in output stream 0:0; previous: 135374659, current: 135373728; changing to 135374659. This may result in incorrect timestamps in the output file.
size=   20356kB time=00:47:06.20 bitrate=  59.0kbits/s speed=0.991x    size=   20375kB time=00:47:09.85 bitrate=  59.0kbits/s speed=0.991x    size=   20394kB time=00:47:13.05 bitrate=  59.0kbits/s speed=0.991x    size=   20413kB time=00:47:15.97 bitrate=  59.0kbits/s speed=0.991x    size=   20437kB time=00:47:19.88 bitrate=  59.0kbits/s speed=0.992x    size=   20456kB time=00:47:23.05 bitrate=  58.9kbits/s speed=0.992x    size=   20475kB time=00:47:25.73 bitrate=  58.9kbits/s speed=0.991x    size=   20494kB time=00:47:28.82 bitrate=  58.9kbits/s speed=0.991x    size=   20513kB time=00:47:31.91 bitrate=  58.9kbits/s speed=0.991x    size=   20536kB time=00:47:34.92 bitrate=  58.9kbits/s speed=0.991x    size=   20555kB time=00:47:38.11 bitrate=  58.9kbits/s speed=0.992x    size=   20574kB time=00:47:40.63 bitrate=  58.9kbits/s speed=0.991x    size=   20593kB time=00:47:44.16 bitrate=  58.9kbits/s speed=0.992x    size=   20612kB time=00:47:47.11 bitrate=  58.9kbits/s speed=0.991x    size=   20631kB time=00:47:49.75 bitrate=  58.9kbits/s speed=0.991x    size=   20650kB time=00:47:52.72 bitrate=  58.9kbits/s speed=0.991x    size=   20674kB time=00:47:56.43 bitrate=  58.9kbits/s speed=0.992x    size=   20693kB time=00:47:58.92 bitrate=  58.9kbits/s speed=0.991x    size=   20712kB time=00:48:01.59 bitrate=  58.9kbits/s speed=0.991x    size=   20731kB time=00:48:05.19 bitrate=  58.9kbits/s speed=0.991x    size=   20750kB time=00:48:07.90 bitrate=  58.9kbits/s speed=0.991x    size=   20773kB time=00:48:11.68 bitrate=  58.8kbits/s speed=0.992x    size=   20792kB time=00:48:15.28 bitrate=  58.8kbits/s speed=0.992x    size=   20811kB time=00:48:17.74 bitrate=  58.8kbits/s speed=0.992x    size=   20830kB time=00:48:20.94 bitrate=  58.8kbits/s speed=0.992x    size=   20849kB time=00:48:24.34 bitrate=  58.8kbits/s speed=0.992x    size=   20873kB time=00:48:27.29 bitrate=  58.8kbits/s speed=0.992x    size=   20892kB time=00:48:30.39 bitrate=  58.8kbits/s speed=0.992x    size=   20911kB time=00:48:33.22 bitrate=  58.8kbits/s speed=0.992x    size=   20930kB time=00:48:36.26 bitrate=  58.8kbits/s speed=0.992x    size=   20949kB time=00:48:39.28 bitrate=  58.8kbits/s speed=0.992x    size=   20967kB time=00:48:42.66 bitrate=  58.8kbits/s speed=0.992x    size=   20991kB time=00:48:45.70 bitrate=  58.8kbits/s speed=0.992x    size=   21010kB time=00:48:48.41 bitrate=  58.8kbits/s speed=0.992x    size=   21029kB time=00:48:51.12 bitrate=  58.8kbits/s speed=0.991x    size=   21048kB time=00:48:54.22 bitrate=  58.8kbits/s speed=0.992x    size=   21072kB time=00:48:58.01 bitrate=  58.8kbits/s speed=0.992x    size=   21091kB time=00:49:01.11 bitrate=  58.7kbits/s speed=0.992x    size=   21110kB time=00:49:03.61 bitrate=  58.7kbits/s speed=0.992x    size=   21129kB time=00:49:06.76 bitrate=  58.7kbits/s speed=0.992x    size=   21148kB time=00:49:09.28 bitrate=  58.7kbits/s speed=0.991x    size=   21171kB time=00:49:13.25 bitrate=  58.7kbits/s speed=0.992x    size=   21190kB time=00:49:15.96 bitrate=  58.7kbits/s speed=0.992x    size=   21209kB time=00:49:18.81 bitrate=  58.7kbits/s speed=0.992x    size=   21228kB time=00:49:22.45 bitrate=  58.7kbits/s speed=0.992x    size=   21247kB time=00:49:25.51 bitrate=  58.7kbits/s speed=0.992x    size=   21271kB time=00:49:28.84 bitrate=  58.7kbits/s speed=0.992x    size=   21290kB time=00:49:32.06 bitrate=  58.7kbits/s speed=0.992x    size=   21309kB time=00:49:34.76 bitrate=  58.7kbits/s speed=0.992x    size=   21328kB time=00:49:37.96 bitrate=  58.7kbits/s speed=0.992x    size=   21346kB time=00:49:40.77 bitrate=  58.7kbits/s speed=0.992x    size=   21365kB time=00:49:44.03 bitrate=  58.7kbits/s speed=0.992x    size=   21384kB time=00:49:47.17 bitrate=  58.6kbits/s speed=0.992x    size=   21403kB time=00:49:49.76 bitrate=  58.6kbits/s speed=0.992x    size=   21422kB time=00:49:52.72 bitrate=  58.6kbits/s speed=0.992x    size=   21446kB time=00:49:56.13 bitrate=  58.6kbits/s speed=0.992x    size=   21465kB time=00:49:58.94 bitrate=  58.6kbits/s speed=0.992x    size=   21484kB time=00:50:02.34 bitrate=  58.6kbits/s speed=0.992x    size=   21503kB time=00:50:05.23 bitrate=  58.6kbits/s speed=0.992x    size=   21522kB time=00:50:07.79 bitrate=  58.6kbits/s speed=0.992x    size=   21541kB time=00:50:11.53 bitrate=  58.6kbits/s speed=0.992x    size=   21564kB time=00:50:14.79 bitrate=  58.6kbits/s speed=0.992x    size=   21583kB time=00:50:17.80 bitrate=  58.6kbits/s speed=0.992x    size=   21602kB time=00:50:19.68 bitrate=  58.6kbits/s speed=0.992x    size=   21621kB time=00:50:22.68 bitrate=  58.6kbits/s speed=0.992x    size=   21640kB time=00:50:26.44 bitrate=  58.6kbits/s speed=0.992x    size=   21664kB time=00:50:30.15 bitrate=  58.6kbits/s speed=0.992x    size=   21683kB time=00:50:33.53 bitrate=  58.6kbits/s speed=0.992x    size=   21702kB time=00:50:36.17 bitrate=  58.6kbits/s speed=0.992x    [rtp @ 0x562e8317fbc0] Non-monotonic DTS in output stream 0:0; previous: 145609813, current: 145609167; changing to 145609813. This may result in incorrect timestamps in the output file.
size=   21721kB time=00:50:39.38 bitrate=  58.5kbits/s speed=0.992x    size=   21740kB time=00:50:42.41 bitrate=  58.5kbits/s speed=0.992x    size=   21759kB time=00:50:45.42 bitrate=  58.5kbits/s speed=0.992x    size=   21778kB time=00:50:48.32 bitrate=  58.5kbits/s speed=0.992x    size=   21797kB time=00:50:51.61 bitrate=  58.5kbits/s speed=0.992x    size=   21816kB time=00:50:54.76 bitrate=  58.5kbits/s speed=0.992x    size=   21839kB time=00:50:57.58 bitrate=  58.5kbits/s speed=0.992x    size=   21858kB time=00:51:01.10 bitrate=  58.5kbits/s speed=0.992x    size=   21877kB time=00:51:03.77 bitrate=  58.5kbits/s speed=0.992x    size=   21896kB time=00:51:06.93 bitrate=  58.5kbits/s speed=0.992x    size=   21915kB time=00:51:09.73 bitrate=  58.5kbits/s speed=0.992x    size=   21934kB time=00:51:12.29 bitrate=  58.5kbits/s speed=0.992x    size=   21958kB time=00:51:15.82 bitrate=  58.5kbits/s speed=0.992x    size=   21977kB time=00:51:18.48 bitrate=  58.5kbits/s speed=0.992x    size=   21996kB time=00:51:21.66 bitrate=  58.5kbits/s speed=0.992x    [rtp @ 0x562e8317fbc0] Non-monotonic DTS in output stream 0:0; previous: 147767336, current: 147765662; changing to 147767336. This may result in incorrect timestamps in the output file.
size=   22015kB time=00:51:24.44 bitrate=  58.5kbits/s speed=0.992x    size=   22033kB time=00:51:27.95 bitrate=  58.5kbits/s speed=0.992x    size=   22052kB time=00:51:31.54 bitrate=  58.4kbits/s speed=0.992x    size=   22071kB time=00:51:33.34 bitrate=  58.5kbits/s speed=0.992x    size=   22095kB time=00:51:37.74 bitrate=  58.4kbits/s speed=0.992x    size=   22114kB time=00:51:41.18 bitrate=  58.4kbits/s speed=0.992x    size=   22133kB time=00:51:43.79 bitrate=  58.4kbits/s speed=0.992x    [rtp @ 0x562e8317fbc0] Non-monotonic DTS in output stream 0:0; previous: 148856971, current: 148855874; changing to 148856971. This may result in incorrect timestamps in the output file.
size=   22147kB time=00:51:46.79 bitrate=  58.4kbits/s speed=0.992x    size=   22171kB time=00:51:49.82 bitrate=  58.4kbits/s speed=0.992x    size=   22195kB time=00:51:53.00 bitrate=  58.4kbits/s speed=0.992x    size=   22213kB time=00:51:56.42 bitrate=  58.4kbits/s speed=0.992x    size=   22232kB time=00:51:58.94 bitrate=  58.4kbits/s speed=0.992x    size=   22251kB time=00:52:02.07 bitrate=  58.4kbits/s speed=0.992x    size=   22270kB time=00:52:05.16 bitrate=  58.4kbits/s speed=0.992x    size=   22289kB time=00:52:08.43 bitrate=  58.4kbits/s speed=0.992x    size=   22308kB time=00:52:11.48 bitrate=  58.4kbits/s speed=0.992x    size=   22327kB time=00:52:14.52 bitrate=  58.4kbits/s speed=0.992x    size=   22346kB time=00:52:16.83 bitrate=  58.4kbits/s speed=0.992x    size=   22365kB time=00:52:19.81 bitrate=  58.4kbits/s speed=0.992x    size=   22389kB time=00:52:22.77 bitrate=  58.4kbits/s speed=0.992x    size=   22408kB time=00:52:27.24 bitrate=  58.3kbits/s speed=0.992x    size=   22427kB time=00:52:28.74 bitrate=  58.3kbits/s speed=0.992x    size=   22446kB time=00:52:32.75 bitrate=  58.3kbits/s speed=0.992x    size=   22465kB time=00:52:36.09 bitrate=  58.3kbits/s speed=0.992x    size=   22484kB time=00:52:39.03 bitrate=  58.3kbits/s speed=0.992x    size=   22502kB time=00:52:42.39 bitrate=  58.3kbits/s speed=0.992x    size=   22521kB time=00:52:45.36 bitrate=  58.3kbits/s speed=0.992x    size=   22540kB time=00:52:48.36 bitrate=  58.3kbits/s speed=0.992x    size=   22559kB time=00:52:51.42 bitrate=  58.3kbits/s speed=0.992x    size=   22583kB time=00:52:54.57 bitrate=  58.3kbits/s speed=0.992x    size=   22602kB time=00:52:57.85 bitrate=  58.3kbits/s speed=0.992x    size=   22621kB time=00:53:00.56 bitrate=  58.3kbits/s speed=0.992x    size=   22640kB time=00:53:03.72 bitrate=  58.3kbits/s speed=0.992x    size=   22659kB time=00:53:06.31 bitrate=  58.3kbits/s speed=0.992x    size=   22678kB time=00:53:09.81 bitrate=  58.2kbits/s speed=0.992x    size=   22697kB time=00:53:12.96 bitrate=  58.2kbits/s speed=0.992x    size=   22716kB time=00:53:15.31 bitrate=  58.2kbits/s speed=0.992x    size=   22735kB time=00:53:18.66 bitrate=  58.2kbits/s speed=0.992x    size=   22754kB time=00:53:22.21 bitrate=  58.2kbits/s speed=0.992x    size=   22773kB time=00:53:24.85 bitrate=  58.2kbits/s speed=0.992x    size=   22796kB time=00:53:27.34 bitrate=  58.2kbits/s speed=0.992x    size=   22815kB time=00:53:31.04 bitrate=  58.2kbits/s speed=0.992x    